<svg id="Layer_1" data-name="Layer 1" xmlns="http://www.w3.org/2000/svg" xmlns:xlink="http://www.w3.org/1999/xlink" viewBox="0 0 459.42 87.06"><defs><style>.cls-1{fill:none;}.cls-2{fill:#fff;}.cls-3{fill:#8ab725;}.cls-4{clip-path:url(#clip-path);}</style><clipPath id="clip-path" transform="translate(-23.35 -40.82)"><rect class="cls-1" x="23.35" y="40.82" width="459.42" height="87.06"/></clipPath></defs><polygon class="cls-2" points="171.55 6.12 152.86 72.86 132.56 6.12 122.93 6.12 102.51 72.86 83.82 6.12 72.12 6.12 96.55 86.4 108.48 86.4 127.75 22.75 146.78 86.4 158.82 86.4 183.25 6.12 171.55 6.12"/><polygon class="cls-2" points="235.79 6.12 235.79 14.95 259.53 14.95 259.53 86.4 270.54 86.4 270.54 14.95 294.16 14.95 294.16 6.12 235.79 6.12"/><polygon class="cls-2" points="412.06 0.38 412.06 86.4 422.49 86.4 422.49 54.97 447.73 86.4 459.42 86.4 430.75 51.65 457.24 23.32 445.55 23.32 422.49 48.78 422.49 0.38 412.06 0.38"/><polyline class="cls-3" points="430.61 51.65 457.1 23.32 445.4 23.32 422.35 48.78 422.35 37.99 411.92 37.99 411.92 70.53"/><g class="cls-4"><path class="cls-2" d="M82,121.25H29V53.45h7.86v3.29a2.83,2.83,0,1,0,5.65,0V53.45H52.68v3.29a2.83,2.83,0,1,0,5.65,0V53.45H68.5v3.29a2.83,2.83,0,1,0,5.65,0V53.45H82m2.83-5.65H74.15V43.65a2.83,2.83,0,1,0-5.65,0V47.8H58.33V43.65a2.83,2.83,0,1,0-5.65,0V47.8H42.51V43.65a2.83,2.83,0,1,0-5.65,0V47.8H26.18a2.83,2.83,0,0,0-2.83,2.82v73.45a2.83,2.83,0,0,0,2.83,2.83H84.83a2.83,2.83,0,0,0,2.82-2.83V50.62a2.82,2.82,0,0,0-2.82-2.82" transform="translate(-23.35 -40.82)"/><path class="cls-2" d="M72.23,76.25H38.78a2.83,2.83,0,1,0,0,5.65H72.23a2.83,2.83,0,0,0,0-5.65" transform="translate(-23.35 -40.82)"/><path class="cls-2" d="M72.23,88.3H38.78a2.83,2.83,0,1,0,0,5.65H72.23a2.83,2.83,0,0,0,0-5.65" transform="translate(-23.35 -40.82)"/><path class="cls-2" d="M72.23,99.53H38.78a2.83,2.83,0,1,0,0,5.65H72.23a2.83,2.83,0,0,0,0-5.65" transform="translate(-23.35 -40.82)"/><path class="cls-2" d="M72.23,111.36H38.78a2.83,2.83,0,1,0,0,5.65H72.23a2.83,2.83,0,0,0,0-5.65" transform="translate(-23.35 -40.82)"/><path class="cls-2" d="M260.94,98.3H217.47c.58,14.8,6,21.57,16.4,21.57,9.52,0,14.22-5.74,15.72-12.73H260c-1.95,11.92-10.09,20.52-26.15,20.52-17.77,0-26.83-10.89-26.83-32.34S216.1,63.1,233.87,63.1c18,0,27.76,11.12,27.07,35.2m-43.47-6.19h33.15c-.58-15.6-7-21.33-16.75-21.33-10.43,0-15.82,6.65-16.4,21.33" transform="translate(-23.35 -40.82)"/><path class="cls-2" d="M378.46,105.49H388c-.91,10.33,3.79,14.45,13.31,14.45,9.06,0,13.41-3.44,13.3-8.6,0-5.62-2.87-8.48-15.48-13.87C383.39,90.7,379.37,86,379.37,78c0-8.26,7.11-14.79,21.91-14.79,18.58,0,22.93,8.48,22.36,19.15h-9.4c.34-6.31-2.18-11.7-12.85-11.7-8.37,0-11.81,3.44-11.81,7.68,0,4.59,3.21,7.23,14.33,11.82,16.75,7,20.76,11.92,20.76,21.56,0,10-8.25,15.71-23.85,15.71-14.8,0-24.09-5.51-22.36-21.91" transform="translate(-23.35 -40.82)"/><path class="cls-2" d="M364.51,86.48v40.94H354.42v-9.29c-4.24,6.65-11.7,9.75-21,9.75-11.58,0-17.54-6.19-17.54-17,0-12.5,9.75-22.59,38.53-25.68-.34-10.44-3.32-13.88-11.47-13.77-7.22,0-15.59,1.61-22.93,3.56l-1.61-7.34c8.14-2.07,17.66-3.79,26.15-3.79,15,0,19.95,6.2,19.95,22.6m-10.09,15.94V92.1c-22.13,2.06-28.67,9.52-28.67,17.09,0,6.76,3.56,10.66,11.7,10.66,8.94,0,17-4.82,17-17.43" transform="translate(-23.35 -40.82)"/></g></svg>