<svg id="Layer_1" data-name="Layer 1" xmlns="http://www.w3.org/2000/svg" viewBox="0 0 620.21 172.7"><defs><style>.cls-1{fill:#187cbe;}.cls-2{fill:#1b354d;}.cls-3{fill:#373535;}.cls-4{fill:#4d4d4d;}</style></defs><path class="cls-1" d="M324.6,108.32,294,208.82H279l-23.83-79.68L231,208.82H216.06l-30.58-100.5h14.65l23.4,83.56,25.56-83.56h12.06l25.41,83.56L310,108.32Z" transform="translate(-50.13 -93.87)"/><path class="cls-1" d="M395,173.07H340.63c.72,18.52,7.47,27,20.53,27,11.92,0,17.8-7.18,19.67-15.94h13.06c-2.44,14.93-12.63,25.7-32.73,25.7-22.25,0-33.6-13.64-33.6-40.49S338.91,129,361.16,129C383.7,129,395.9,142.92,395,173.07Zm-54.41-7.75h41.49c-.72-19.52-8.76-26.7-21-26.7C348.1,138.62,341.35,146.94,340.63,165.32Z" transform="translate(-50.13 -93.87)"/><path class="cls-2" d="M463.45,119.38H433.88v89.44H420.09V119.38H390.38V108.32h73.07Z" transform="translate(-50.13 -93.87)"/><path class="cls-2" d="M521.89,157.57v51.25H509.26V197.19C504,205.52,494.62,209.4,483,209.4c-14.5,0-22-7.76-22-21.25,0-15.65,12.2-28.28,48.24-32.16-.43-13.07-4.16-17.37-14.36-17.23-9,0-19.52,2-28.71,4.45l-2-9.19c10.19-2.58,22.11-4.73,32.73-4.73C515.72,129.29,521.89,137,521.89,157.57Zm-12.63,20V164.6c-27.71,2.59-35.89,11.92-35.89,21.4,0,8.47,4.45,13.35,14.64,13.35C499.21,199.35,509.26,193.32,509.26,177.53Z" transform="translate(-50.13 -93.87)"/><path class="cls-2" d="M536.68,182.12H548.6c-1.15,12.92,4.73,18.09,16.65,18.09,11.34,0,16.8-4.31,16.65-10.77,0-7-3.59-10.62-19.38-17.37-19.67-8.47-24.69-14.36-24.69-24.41,0-10.33,8.9-18.52,27.42-18.52,23.26,0,28.71,10.63,28,24H581.47c.43-7.9-2.72-14.65-16.08-14.65-10.48,0-14.78,4.31-14.78,9.62,0,5.75,4,9,17.94,14.79,21,8.76,26,14.93,26,27,0,12.49-10.34,19.67-29.86,19.67C546.16,209.54,534.53,202.65,536.68,182.12Z" transform="translate(-50.13 -93.87)"/><path class="cls-2" d="M655.69,208.82l-31.58-39.33v39.33H611V101.15h13.07v60.58L653,129.86h14.65l-33.17,35.46,35.9,43.5Z" transform="translate(-50.13 -93.87)"/><path class="cls-1" d="M189.59,246.36v-5.63c0-8.33,3.51-11.89,10.67-11.89s10.63,3.56,10.63,11.89v5.63c0,8.36-3.47,12-10.63,12S189.59,254.72,189.59,246.36Zm17.64.37v-6.38c0-6-2.32-8.49-7-8.49s-7,2.53-7,8.49v6.38c0,6.05,2.4,8.57,7,8.57S207.23,252.78,207.23,246.73Z" transform="translate(-50.13 -93.87)"/><path class="cls-1" d="M216.22,235.3h3.28v5.22h.07c.8-3,2.71-5.22,6.82-5.22h1v3.56h-1c-4.23,0-6.7,2.11-6.7,7.79v11.43h-3.47Z" transform="translate(-50.13 -93.87)"/><path class="cls-1" d="M247.71,235.3v22.16c0,6.66-2.82,9.11-8.69,9.11a23.32,23.32,0,0,1-6.25-.87l.5-2.7a19.5,19.5,0,0,0,5.45.75c3.88,0,5.48-1.74,5.48-6.58V253a6.77,6.77,0,0,1-6.44,3.94c-5.63,0-8.53-4.1-8.53-10.89s2.9-10.9,8.53-10.9a6.82,6.82,0,0,1,6.44,4V235.3ZM244.36,246c0-5.1-2-8.2-5.83-8.2s-5.8,3.1-5.8,8.2,2,8.24,5.8,8.24S244.36,251.12,244.36,246Z" transform="translate(-50.13 -93.87)"/><path class="cls-1" d="M268.28,243.29v14.79h-3.35v-3.36c-1.41,2.41-3.89,3.52-7,3.52-3.85,0-5.83-2.23-5.83-6.13,0-4.51,3.24-8.15,12.8-9.27-.12-3.77-1.11-5-3.81-5a29.23,29.23,0,0,0-7.62,1.28L253,236.5a34.62,34.62,0,0,1,8.69-1.37C266.64,235.13,268.28,237.37,268.28,243.29Zm-3.35,5.76v-3.73c-7.35.75-9.53,3.44-9.53,6.17,0,2.45,1.18,3.85,3.89,3.85C262.26,255.34,264.93,253.6,264.93,249.05Z" transform="translate(-50.13 -93.87)"/><path class="cls-1" d="M291.37,244.41v13.67H287.9V244.41c0-4.1-1.75-6.5-5.1-6.5-3.66,0-5.38,2.53-5.38,6.83l0,0,0,13.38h-3.5V235.3h3.47v2.9a6.92,6.92,0,0,1,6.28-3.11C288.89,235.09,291.37,238.49,291.37,244.41Z" transform="translate(-50.13 -93.87)"/><path class="cls-1" d="M297.05,227h3.46v4h-3.46Zm0,8.28h3.46v22.78h-3.46Z" transform="translate(-50.13 -93.87)"/><path class="cls-1" d="M315.64,238.12H305.12V235.3H320.4l-10.86,20h10.82v2.82H304.74Z" transform="translate(-50.13 -93.87)"/><path class="cls-1" d="M324.78,227h3.47v4h-3.47Zm0,8.28h3.47v22.78h-3.47Z" transform="translate(-50.13 -93.87)"/><path class="cls-1" d="M351.87,244.41v13.67H348.4V244.41c0-4.1-1.75-6.5-5.1-6.5-3.66,0-5.37,2.53-5.37,6.83l0,0,0,13.38h-3.51V235.3h3.47v2.9a6.92,6.92,0,0,1,6.28-3.11C349.39,235.09,351.87,238.49,351.87,244.41Z" transform="translate(-50.13 -93.87)"/><path class="cls-1" d="M374.46,235.3v22.16c0,6.66-2.82,9.11-8.68,9.11a23.26,23.26,0,0,1-6.25-.87L360,263a19.56,19.56,0,0,0,5.45.75c3.89,0,5.49-1.74,5.49-6.58V253a6.78,6.78,0,0,1-6.44,3.94c-5.64,0-8.54-4.1-8.54-10.89s2.9-10.9,8.54-10.9a6.83,6.83,0,0,1,6.44,4V235.3ZM371.11,246c0-5.1-2-8.2-5.83-8.2s-5.79,3.1-5.79,8.2,1.94,8.24,5.79,8.24S371.11,251.12,371.11,246Z" transform="translate(-50.13 -93.87)"/><path class="cls-1" d="M408.14,235.3l-11,31.06h-3.28l3.4-9.32-7.78-21.74h3.62l5.72,17.23,5.9-17.23Z" transform="translate(-50.13 -93.87)"/><path class="cls-1" d="M409.53,246.69c0-7.7,3.09-11.64,9.07-11.64s9.18,3.94,9.18,11.64-3.12,11.68-9.18,11.68S409.53,254.43,409.53,246.69Zm14.75,0c0-6.05-1.87-8.86-5.68-8.86s-5.6,2.81-5.6,8.86,1.87,8.86,5.6,8.86S424.28,252.74,424.28,246.69Z" transform="translate(-50.13 -93.87)"/><path class="cls-1" d="M449.27,235.3v22.78h-3.5v-2.65c-1.26,1.86-3.28,2.85-6.18,2.85-5.26,0-7.62-3.14-7.62-9v-14h3.51v13.87c0,4.1,1.64,6.3,5,6.3,3.7,0,5.3-2.32,5.3-6.63V235.3Z" transform="translate(-50.13 -93.87)"/><path class="cls-1" d="M455.44,235.3h3.28v5.22h.07c.8-3,2.71-5.22,6.82-5.22h1v3.56h-1c-4.22,0-6.7,2.11-6.7,7.79v11.43h-3.47Z" transform="translate(-50.13 -93.87)"/><path class="cls-1" d="M509.54,235.3l-6.44,22.78h-3.54l-5.07-18-5.06,18h-3.55l-6.44-22.78h3.78l4.49,18.43,5.15-18.43h3.27l5.15,18.43,4.49-18.43Z" transform="translate(-50.13 -93.87)"/><path class="cls-1" d="M511.58,246.69c0-7.7,3.09-11.64,9.07-11.64s9.18,3.94,9.18,11.64-3.12,11.68-9.18,11.68S511.58,254.43,511.58,246.69Zm14.75,0c0-6.05-1.87-8.86-5.68-8.86s-5.6,2.81-5.6,8.86,1.87,8.86,5.6,8.86S526.33,252.74,526.33,246.69Z" transform="translate(-50.13 -93.87)"/><path class="cls-1" d="M534.56,235.3h3.27v5.22h.08c.8-3,2.71-5.22,6.82-5.22h.95v3.56h-.95c-4.23,0-6.71,2.11-6.71,7.79v11.43h-3.46Z" transform="translate(-50.13 -93.87)"/><path class="cls-1" d="M561.42,258.08,553,246.73v11.35h-3.47V227H553v17.47l7.65-9.19h3.89l-8.8,10.23,9.52,12.55Z" transform="translate(-50.13 -93.87)"/><path class="cls-1" d="M596.89,258.08l-3.47-5.1,0,.09c-3.69,6.75-10.32,6.25-13,2.52s-1.64-7.91,2.44-11.55l2.93-2.57L584,238.9c-3.54-5.05-1.18-10.06,4.8-10.06s8,6.29,3.36,10.68l-7.4,6.88c-2.93,2.73-3.08,4.93-1.71,7,1.52,2.28,5.75,2.69,8.34-2.53l5-8.53h3.59l-4.81,7.87,5.42,7.83Zm-9-18.43,2.32-2.07c2.78-2.49,2.29-6.38-1.45-6.38s-4.57,3.11-2.13,6.67Z" transform="translate(-50.13 -93.87)"/><path class="cls-1" d="M615.59,253.44V227h3.47v26c0,1.87.53,2.28,1.94,2.28h1.15v2.82h-2C616.81,258.08,615.59,257.25,615.59,253.44Z" transform="translate(-50.13 -93.87)"/><path class="cls-1" d="M626.26,227h3.47v4h-3.47Zm0,8.28h3.47v22.78h-3.47Z" transform="translate(-50.13 -93.87)"/><path class="cls-1" d="M640.17,233.35v2h4.61V238h-4.61v20.13h-3.51V238h-2.59V235.3h2.59v-2c0-4.47,1.3-6.54,5.07-6.54a20.15,20.15,0,0,1,4.15.5l-.3,2.44a16.83,16.83,0,0,0-2.75-.29C640.74,229.42,640.17,230.46,640.17,233.35Z" transform="translate(-50.13 -93.87)"/><path class="cls-1" d="M664.12,247.77H649.68c.19,5.34,2,7.78,5.45,7.78,3.16,0,4.72-2.07,5.21-4.6h3.47c-.64,4.31-3.35,7.42-8.68,7.42-5.91,0-8.92-3.94-8.92-11.68s3-11.64,8.92-11.64S664.35,239.07,664.12,247.77Zm-14.44-2.24h11c-.19-5.63-2.33-7.7-5.56-7.7C651.66,237.83,649.87,240.23,649.68,245.53Z" transform="translate(-50.13 -93.87)"/><polyline class="cls-1" points="584.13 71.46 617.29 36 602.65 36 573.79 67.87 573.79 54.36 560.73 54.36 560.73 95.1"/><path class="cls-3" d="M616.37,105.38" transform="translate(-50.13 -93.87)"/><path class="cls-4" d="M162.39,247.81H61V118H76v6.31a5.41,5.41,0,0,0,10.81,0V118h19.47v6.31a5.41,5.41,0,0,0,10.82,0V118h19.47v6.31a5.41,5.41,0,0,0,10.81,0V118h15m5.41-10.82H147.36v-8a5.41,5.41,0,0,0-10.81,0v8H117.08v-8a5.41,5.41,0,0,0-10.82,0v8H86.79v-8a5.41,5.41,0,0,0-10.81,0v8H55.54a5.41,5.41,0,0,0-5.41,5.41V253.22a5.41,5.41,0,0,0,5.41,5.41H167.8a5.41,5.41,0,0,0,5.41-5.41V112.63a5.41,5.41,0,0,0-5.41-5.41" transform="translate(-50.13 -93.87)"/><path class="cls-1" d="M162.39,247.81H61V118H76v6.31a5.41,5.41,0,0,0,10.81,0V118h19.47v6.31a5.41,5.41,0,0,0,10.82,0V118h19.47v6.31a5.41,5.41,0,0,0,10.81,0V118h15m5.41-10.82H147.36v-8a5.41,5.41,0,0,0-10.81,0v8H117.08v-8a5.41,5.41,0,0,0-10.82,0v8H86.79v-8a5.41,5.41,0,0,0-10.81,0v8H55.54a5.41,5.41,0,0,0-5.41,5.41V253.22a5.41,5.41,0,0,0,5.41,5.41H167.8a5.41,5.41,0,0,0,5.41-5.41V112.63A5.41,5.41,0,0,0,167.8,107.22Z" transform="translate(-50.13 -93.87)"/><path class="cls-2" d="M143.68,161.68h-64a5.41,5.41,0,0,0,0,10.82h64a5.41,5.41,0,0,0,0-10.82" transform="translate(-50.13 -93.87)"/><path class="cls-2" d="M143.68,161.68h-64a5.41,5.41,0,0,0,0,10.82h64a5.41,5.41,0,0,0,0-10.82Z" transform="translate(-50.13 -93.87)"/><path class="cls-2" d="M143.68,184.75h-64a5.41,5.41,0,0,0,0,10.82h64a5.41,5.41,0,0,0,0-10.82" transform="translate(-50.13 -93.87)"/><path class="cls-2" d="M143.68,184.75h-64a5.41,5.41,0,0,0,0,10.82h64a5.41,5.41,0,0,0,0-10.82Z" transform="translate(-50.13 -93.87)"/><path class="cls-2" d="M143.68,206.25h-64a5.41,5.41,0,0,0,0,10.81h64a5.41,5.41,0,1,0,0-10.81" transform="translate(-50.13 -93.87)"/><path class="cls-2" d="M143.68,206.25h-64a5.41,5.41,0,0,0,0,10.81h64a5.41,5.41,0,1,0,0-10.81Z" transform="translate(-50.13 -93.87)"/><path class="cls-2" d="M143.68,228.88h-64a5.41,5.41,0,1,0,0,10.81h64a5.41,5.41,0,1,0,0-10.81" transform="translate(-50.13 -93.87)"/><path class="cls-2" d="M143.68,228.88h-64a5.41,5.41,0,1,0,0,10.81h64a5.41,5.41,0,1,0,0-10.81Z" transform="translate(-50.13 -93.87)"/></svg>