<svg id="_Layer_" data-name="&lt;Layer&gt;" xmlns="http://www.w3.org/2000/svg" xmlns:xlink="http://www.w3.org/1999/xlink" viewBox="0 0 1689.75 1116.06"><defs><style>.cls-1{fill:#ff74a9;}.cls-2{fill:#f3f7fd;}.cls-3{fill:url(#Áåçûìÿííûé_ãðàäèåíò_28);}.cls-4{fill:#0c0002;}.cls-5{fill:url(#Áåçûìÿííûé_ãðàäèåíò_44);}.cls-6{fill:url(#Áåçûìÿííûé_ãðàäèåíò_39);}.cls-26,.cls-7{fill:#fff;}.cls-8{fill:url(#Áåçûìÿííûé_ãðàäèåíò_74);}.cls-9{fill:url(#Áåçûìÿííûé_ãðàäèåíò_38);}.cls-10{fill:url(#Áåçûìÿííûé_ãðàäèåíò_36);}.cls-11{fill:#cf8f00;}.cls-12{fill:#ff73a6;}.cls-13{fill:#ff9dd7;}.cls-14{fill:#bc4b73;}.cls-15{fill:url(#Áåçûìÿííûé_ãðàäèåíò_39-2);}.cls-16{fill:url(#Áåçûìÿííûé_ãðàäèåíò_37);}.cls-17{fill:url(#Áåçûìÿííûé_ãðàäèåíò_30);}.cls-18{fill:#f5f7fd;}.cls-19{fill:#dee7ff;}.cls-20{fill:#73c5da;}.cls-21{fill:#ffc600;}.cls-22{fill:#00e3d2;}.cls-23{fill:url(#Áåçûìÿííûé_ãðàäèåíò_74-2);}.cls-24{fill:#a8c7fd;}.cls-25{fill:#fdfdfd;}.cls-26{opacity:0.3;}.cls-27{fill:#253456;}.cls-28{fill:url(#Áåçûìÿííûé_ãðàäèåíò_19);}.cls-29{fill:#ffd4df;}.cls-30{fill:url(#Áåçûìÿííûé_ãðàäèåíò_18);}.cls-31{fill:#78b0fb;}.cls-32{fill:url(#Áåçûìÿííûé_ãðàäèåíò_74-3);}.cls-33{fill:#ffb081;}.cls-34{fill:#2d3c68;}.cls-35{fill:#3e4261;}.cls-36{fill:#1e2a48;}.cls-37{fill:#e7eaef;}.cls-38{fill:#9aa1ae;}.cls-39{fill:url(#Áåçûìÿííûé_ãðàäèåíò_39-3);}.cls-40{fill:url(#Áåçûìÿííûé_ãðàäèåíò_39-4);}.cls-41{fill:#7289ac;}.cls-42{fill:#f7ad00;}.cls-43{fill:#e58f6c;}.cls-44{fill:#29364b;}.cls-45{fill:#152136;}.cls-46{fill:#30334d;}.cls-47{fill:#3d4b69;}.cls-48{fill:#0a1724;}.cls-49{fill:#637892;}.cls-50{fill:#e08b69;}.cls-51{fill:#a5aebd;}.cls-52{fill:url(#Áåçûìÿííûé_ãðàäèåíò_42);}.cls-53{fill:#e76093;}.cls-54{fill:#4a5d7e;}.cls-55{fill:#ff689b;}.cls-56{fill:#fffdff;}.cls-57{fill:#d6e8ff;}.cls-58{fill:#27315a;}.cls-59{fill:#121c32;}.cls-60{fill:#ffc800;}.cls-61{fill:#00182d;}.cls-62{fill:#e88c6b;}.cls-63{fill:#192341;}.cls-64{fill:#202b4c;}.cls-65{fill:#26365a;}</style><linearGradient id="Áåçûìÿííûé_ãðàäèåíò_28" x1="2429.32" y1="791.87" x2="2533.62" y2="791.87" gradientUnits="userSpaceOnUse"><stop offset="0.01" stop-color="#b3def4"/><stop offset="0.25" stop-color="#afddf3"/><stop offset="0.47" stop-color="#a4daee"/><stop offset="0.69" stop-color="#92d4e7"/><stop offset="0.89" stop-color="#78ccdd"/><stop offset="1" stop-color="#68c7d7"/></linearGradient><linearGradient id="Áåçûìÿííûé_ãðàäèåíò_44" x1="2420.13" y1="791.33" x2="2440.12" y2="791.33" gradientTransform="translate(2231.25 -1756.64) rotate(67.5)" gradientUnits="userSpaceOnUse"><stop offset="0.01" stop-color="#efa800"/><stop offset="0.22" stop-color="#f8b500"/><stop offset="0.49" stop-color="#fdbd00"/><stop offset="1" stop-color="#ffbf00"/></linearGradient><linearGradient id="Áåçûìÿííûé_ãðàäèåíò_39" x1="2375.6" y1="1057.7" x2="2534.27" y2="1057.7" gradientUnits="userSpaceOnUse"><stop offset="0" stop-color="#f79903"/><stop offset="1" stop-color="#fbf99a"/></linearGradient><linearGradient id="Áåçûìÿííûé_ãðàäèåíò_74" x1="2341.58" y1="1146.27" x2="2700.33" y2="1146.27" gradientUnits="userSpaceOnUse"><stop offset="0" stop-color="#0fd897"/><stop offset="0.19" stop-color="#0ce0a1"/><stop offset="1" stop-color="#00ffc7"/></linearGradient><linearGradient id="Áåçûìÿííûé_ãðàäèåíò_38" x1="83.33" y1="898.2" x2="249.65" y2="898.2" gradientUnits="userSpaceOnUse"><stop offset="0" stop-color="#fbf99a"/><stop offset="1" stop-color="#f79903"/></linearGradient><linearGradient id="Áåçûìÿííûé_ãðàäèåíò_36" x1="1010.59" y1="1238.31" x2="1224.24" y2="1238.31" gradientUnits="userSpaceOnUse"><stop offset="0" stop-color="#0cdcf9"/><stop offset="0.27" stop-color="#0bd3ee"/><stop offset="0.72" stop-color="#09bad2"/><stop offset="1" stop-color="#08a8be"/></linearGradient><linearGradient id="Áåçûìÿííûé_ãðàäèåíò_39-2" x1="2291.28" y1="665.23" x2="2391.45" y2="665.23" xlink:href="#Áåçûìÿííûé_ãðàäèåíò_39"/><linearGradient id="Áåçûìÿííûé_ãðàäèåíò_37" x1="2184.51" y1="648.66" x2="2298.62" y2="648.66" gradientUnits="userSpaceOnUse"><stop offset="0" stop-color="#00ffc7"/><stop offset="0.81" stop-color="#0ce0a1"/><stop offset="1" stop-color="#0fd897"/></linearGradient><linearGradient id="Áåçûìÿííûé_ãðàäèåíò_30" x1="784.62" y1="843.86" x2="784.62" y2="135.28" gradientUnits="userSpaceOnUse"><stop offset="0" stop-color="#023b74"/><stop offset="1" stop-color="#76a6f3"/></linearGradient><linearGradient id="Áåçûìÿííûé_ãðàäèåíò_74-2" x1="193.3" y1="391.67" x2="412.99" y2="391.67" xlink:href="#Áåçûìÿííûé_ãðàäèåíò_74"/><linearGradient id="Áåçûìÿííûé_ãðàäèåíò_19" x1="624.68" y1="621.63" x2="826.43" y2="621.63" gradientUnits="userSpaceOnUse"><stop offset="0" stop-color="#6489ef"/><stop offset="1" stop-color="#a1b9ee"/></linearGradient><linearGradient id="Áåçûìÿííûé_ãðàäèåíò_18" x1="1012.26" y1="377.74" x2="1173.53" y2="377.74" gradientUnits="userSpaceOnUse"><stop offset="0" stop-color="#f663b3"/><stop offset="0.17" stop-color="#e759a1"/><stop offset="0.39" stop-color="#db5191"/><stop offset="0.65" stop-color="#d34c88"/><stop offset="1" stop-color="#d14a85"/></linearGradient><linearGradient id="Áåçûìÿííûé_ãðàäèåíò_74-3" x1="1009.12" y1="554.94" x2="1128.58" y2="554.94" xlink:href="#Áåçûìÿííûé_ãðàäèåíò_74"/><linearGradient id="Áåçûìÿííûé_ãðàäèåíò_39-3" x1="1829.65" y1="1347.76" x2="1867.47" y2="1347.76" xlink:href="#Áåçûìÿííûé_ãðàäèåíò_39"/><linearGradient id="Áåçûìÿííûé_ãðàäèåíò_39-4" x1="1840.17" y1="1368.24" x2="1928.87" y2="1368.24" xlink:href="#Áåçûìÿííûé_ãðàäèåíò_39"/><linearGradient id="Áåçûìÿííûé_ãðàäèåíò_42" x1="2192.38" y1="1437.47" x2="2319.4" y2="1437.47" gradientUnits="userSpaceOnUse"><stop offset="0" stop-color="#f663b3"/><stop offset="0.28" stop-color="#f05fac"/><stop offset="0.69" stop-color="#e05498"/><stop offset="1" stop-color="#d14a85"/></linearGradient></defs><circle class="cls-1" cx="1419" cy="210.67" r="113.22"/><circle class="cls-2" cx="2430.13" cy="791.33" r="100.79" transform="translate(-858.37 1368.93) rotate(-45)"/><path class="cls-3" d="M2432.83,691.08c-1.18,0-2.35,0-3.51.07a100.78,100.78,0,0,1,0,201.44c1.16,0,2.33.07,3.51.07a100.79,100.79,0,0,0,0-201.58Z" transform="translate(-1010.59 -581.2)"/><rect class="cls-1" x="1418.19" y="130.96" width="2.16" height="78.9"/><rect class="cls-4" x="2470.67" y="765.82" width="3.24" height="94.07" transform="translate(-379.37 2071.06) rotate(-63.17)"/><circle class="cls-5" cx="2430.13" cy="791.33" r="10" transform="translate(-241.52 2152.44) rotate(-67.5)"/><path class="cls-4" d="M2433.64,697a2.7,2.7,0,1,0-2.7,2.71A2.7,2.7,0,0,0,2433.64,697Z" transform="translate(-1010.59 -581.2)"/><path class="cls-4" d="M2433.64,884.55a2.7,2.7,0,1,0-2.7,2.71A2.7,2.7,0,0,0,2433.64,884.55Z" transform="translate(-1010.59 -581.2)"/><path class="cls-4" d="M2340.15,791.06a2.71,2.71,0,1,0-2.71,2.7A2.7,2.7,0,0,0,2340.15,791.06Z" transform="translate(-1010.59 -581.2)"/><path class="cls-4" d="M2516.87,791.06a2.71,2.71,0,1,0-2.71,2.7A2.7,2.7,0,0,0,2516.87,791.06Z" transform="translate(-1010.59 -581.2)"/><path class="cls-6" d="M2375.6,1192.51s19.77-260.28,91.29-268.91,90.59,62,35.35,146.29S2375.6,1192.51,2375.6,1192.51Z" transform="translate(-1010.59 -581.2)"/><rect class="cls-7" x="2345.6" y="1052.96" width="198.18" height="4.52" transform="translate(-553.09 2246.32) rotate(-65.08)"/><path class="cls-8" d="M2351.79,1258.44s56.13-224.76,246.26-272.91,65.69,125.46,19,161.88-77.2,3.88-97.68,60.85-177.83,107.13-177.83,107.13Z" transform="translate(-1010.59 -581.2)"/><path class="cls-7" d="M2384.13,1259.37l-3.08-2a1091.89,1091.89,0,0,1,81.63-107.24c27.37-31.42,53.42-56.78,77.41-75.35,30.18-23.36,57.25-36,80.47-37.72l.26,3.66c-40.46,2.92-94.18,41.57-155.34,111.79A1089.34,1089.34,0,0,0,2384.13,1259.37Z" transform="translate(-1010.59 -581.2)"/><polygon class="cls-9" points="249.65 822.72 249.65 873.04 233.44 875.6 208.71 973.68 140.48 973.68 115.84 904.34 103.86 870.65 103.8 870.48 83.33 870.48 83.33 822.72 249.65 822.72"/><path class="cls-10" d="M1214.45,1374.77a98.42,98.42,0,0,1-7.77,10.88c-30.23,36.25-57.48.36-80-24.21-24.44-26.67-1.11-56.66-17.77-90s-53.33-8.89-85.55-76.66,6.67-112.21,6.67-112.21c49.94-32.31,127.48,54.47,147.47,109v0a74.24,74.24,0,0,1,4.73,19.88C1185.57,1260.34,1247.78,1321.44,1214.45,1374.77Z" transform="translate(-1010.59 -581.2)"/><path class="cls-1" d="M1276.67,1191.45c-11.11,101.11-17.78,47.78-23.33,105.55s-46.66,88.65-46.66,88.65a98.42,98.42,0,0,0,7.77-10.88c33.33-53.33-28.88-114.43-32.22-163.32a74.24,74.24,0,0,0-4.73-19.88v0c0-1.24,2.77-83.54,35.84-100.09C1246.67,1074.8,1287.78,1090.35,1276.67,1191.45Z" transform="translate(-1010.59 -581.2)"/><path class="cls-7" d="M1224.55,1351.56l-3.14-1.33c25.11-59.35,25-118.69,20.43-158-4.92-42.62-15.9-71.51-16-71.8l3.19-1.22c.11.29,11.24,29.58,16.21,72.63C1249.82,1231.56,1250,1291.53,1224.55,1351.56Z" transform="translate(-1010.59 -581.2)"/><path class="cls-7" d="M1180.53,1403.73a562.65,562.65,0,0,0-15.38-100c-12.22-48.84-36.68-113.51-83.84-144.19l1.86-2.86c21.28,13.85,39.82,35.48,55.11,64.31,12.18,23,22.34,50.56,30.19,82a565.85,565.85,0,0,1,15.47,100.61Z" transform="translate(-1010.59 -581.2)"/><polygon class="cls-11" points="206.15 874.75 115.84 904.34 103.86 870.65 206.15 874.75"/><path class="cls-12" d="M1139.89,788l-12.47-13.85-32.93,12.58-.6,18.84a145,145,0,0,0-9.58,12.89l-18.11,4.23-4.9,34.9,16.2,9.63s1.19,3.65,1.92,5.56c1.32,3.45,3,8.56,3,8.56l-4.63,18,28.7,20.48,14.9-9.24a61.77,61.77,0,0,0,13.37,2.07l12.48,13.84L1180.2,914l.59-18.83c4.31-4.21,10.48-11.53,10.48-11.53l18.16-4.23,4.9-34.9-16.2-9.63s-1.66-3.75-2.65-6.37a71.66,71.66,0,0,1-2.29-7.75l4.63-18-28.7-20.48L1154.89,791A151.19,151.19,0,0,0,1139.89,788Zm31.86,48.93a36.93,36.93,0,1,1-47.67-21.33A36.93,36.93,0,0,1,1171.75,836.94Z" transform="translate(-1010.59 -581.2)"/><path class="cls-12" d="M1216,928.62l-11.48-12.69-21.27,5-3.29,16.32a81.65,81.65,0,0,0-12.07,7.32l-16-3.19-14.09,16.69,6.37,13.53a83.36,83.36,0,0,0-5.35,11.78l-15.8,5.53-3.65,21.54,14.9,10.15s1.67,6.33,2.47,9.77c.22.9-.22,2,0,2.84l-10.25,15,9.81,19.52,18-.65s6,5.42,10,8.71l.12,17.32,19.19,10.44,14.43-10.8s12.1,1.83,19,1.81l11.59,12.81,21.26-5,3.27-16.18a84,84,0,0,0,11-6.43l17.78,3.53,14.08-16.69-6.8-14.47a83.39,83.39,0,0,0,5-10.56l16.6-5.82,3.66-21.54-15-9.77a83.55,83.55,0,0,0-1.89-11.79l-.36-1.46,10.06-14.71-9.8-19.52-17.68.63a84.6,84.6,0,0,0-10.31-10.08l-.12-15.94-19.19-10.43-13.29,10A82.3,82.3,0,0,0,1216,928.62Zm56.28,69.93a57,57,0,1,1-68.51-42.47A57,57,0,0,1,1272.24,998.55Z" transform="translate(-1010.59 -581.2)"/><path class="cls-13" d="M1124,793.86a57,57,0,1,0,68.51,42.47A57,57,0,0,0,1124,793.86Zm47.74,43.08a36.93,36.93,0,1,1-47.67-21.33A36.93,36.93,0,0,1,1171.75,836.94Z" transform="translate(-1010.59 -581.2)"/><path class="cls-14" d="M1152.51,1018.84a63.06,63.06,0,1,0,57-68.6A63.06,63.06,0,0,0,1152.51,1018.84Zm119.73-20.29a57,57,0,1,1-68.51-42.47A57,57,0,0,1,1272.24,998.55Z" transform="translate(-1010.59 -581.2)"/><path class="cls-15" d="M2291.28,722.42s12.61-100.89,82-113.51S2291.28,722.42,2291.28,722.42Z" transform="translate(-1010.59 -581.2)"/><path class="cls-16" d="M2297.59,716.12s12.61-119.82-50.45-132.43-75.68,25.22-50.45,56.76,50.45,6.3,69.37,31.53S2297.59,716.12,2297.59,716.12Z" transform="translate(-1010.59 -581.2)"/><path class="cls-7" d="M2290,691.4c-16.1-41.86-37.19-61.68-52.06-70.93-16-10-28.49-10.15-28.61-10.15v-2.81c.53,0,13.2.12,29.9,10.46,15.29,9.46,37,29.71,53.39,72.42Z" transform="translate(-1010.59 -581.2)"/><rect class="cls-7" x="2296.16" y="657.96" width="84.84" height="2.8" transform="translate(-726.67 1375.11) rotate(-48.01)"/><rect class="cls-17" x="177.37" y="126.21" width="1214.5" height="724.72" rx="63.55"/><rect class="cls-18" x="221.48" y="165.53" width="1126.29" height="646.07"/><rect class="cls-19" x="221.17" y="164.04" width="1126.9" height="84.95"/><rect class="cls-19" x="569.59" y="235.71" width="13.94" height="576.06"/><rect class="cls-19" x="969.78" y="235.71" width="13.94" height="576.06"/><path class="cls-20" d="M1344,773.5v3.89h-11v30.24h-4.62V777.39h-11.08V773.5Z" transform="translate(-1010.59 -581.2)"/><path class="cls-20" d="M1378.26,790.58a19.71,19.71,0,0,1-1.22,7,16.11,16.11,0,0,1-3.43,5.51,15.14,15.14,0,0,1-5.32,3.58,19,19,0,0,1-13.73,0,15.28,15.28,0,0,1-5.31-3.58,16.11,16.11,0,0,1-3.43-5.51,21.09,21.09,0,0,1,0-14.08,16.25,16.25,0,0,1,3.43-5.52,15.49,15.49,0,0,1,5.31-3.61,18.91,18.91,0,0,1,13.73,0,15.34,15.34,0,0,1,5.32,3.61,16.25,16.25,0,0,1,3.43,5.52A19.71,19.71,0,0,1,1378.26,790.58Zm-4.74,0a17.31,17.31,0,0,0-.86-5.64,11.86,11.86,0,0,0-2.43-4.23,10.61,10.61,0,0,0-3.81-2.66,13.85,13.85,0,0,0-10,0,10.65,10.65,0,0,0-3.82,2.66,11.73,11.73,0,0,0-2.44,4.23,18.89,18.89,0,0,0,0,11.27,11.77,11.77,0,0,0,2.44,4.22,10.48,10.48,0,0,0,3.82,2.64,14,14,0,0,0,10,0,10.44,10.44,0,0,0,3.81-2.64,11.9,11.9,0,0,0,2.43-4.22A17.25,17.25,0,0,0,1373.52,790.58Z" transform="translate(-1010.59 -581.2)"/><path class="cls-20" d="M1423.34,790.58a19.23,19.23,0,0,1-1.22,7,15.45,15.45,0,0,1-3.43,5.38,15.09,15.09,0,0,1-5.31,3.46,18.41,18.41,0,0,1-6.86,1.23h-12.76V773.5h12.76a18.41,18.41,0,0,1,6.86,1.23,15.13,15.13,0,0,1,5.31,3.48,15.59,15.59,0,0,1,3.43,5.39A19.23,19.23,0,0,1,1423.34,790.58Zm-4.74,0a17.14,17.14,0,0,0-.86-5.62,11.77,11.77,0,0,0-2.43-4.19,10.39,10.39,0,0,0-3.81-2.62,13.22,13.22,0,0,0-5-.91h-8.12v26.65h8.12a13.22,13.22,0,0,0,5-.9,10.49,10.49,0,0,0,3.81-2.61,11.72,11.72,0,0,0,2.43-4.18A17.14,17.14,0,0,0,1418.6,790.58Z" transform="translate(-1010.59 -581.2)"/><path class="cls-20" d="M1461.32,790.58a19.71,19.71,0,0,1-1.21,7,16.26,16.26,0,0,1-3.43,5.51,15.18,15.18,0,0,1-5.33,3.58,19,19,0,0,1-13.72,0,15.23,15.23,0,0,1-5.32-3.58,16.08,16.08,0,0,1-3.42-5.51,20.92,20.92,0,0,1,0-14.08,16.22,16.22,0,0,1,3.42-5.52,15.44,15.44,0,0,1,5.32-3.61,18.89,18.89,0,0,1,13.72,0,15.39,15.39,0,0,1,5.33,3.61,16.4,16.4,0,0,1,3.43,5.52A19.71,19.71,0,0,1,1461.32,790.58Zm-4.74,0a17,17,0,0,0-.86-5.64,12,12,0,0,0-2.42-4.23,10.61,10.61,0,0,0-3.81-2.66,13,13,0,0,0-5-.93,12.83,12.83,0,0,0-5,.93,10.69,10.69,0,0,0-3.83,2.66,12,12,0,0,0-2.44,4.23,19.1,19.1,0,0,0,0,11.27,12.07,12.07,0,0,0,2.44,4.22,10.52,10.52,0,0,0,3.83,2.64,13,13,0,0,0,5,.92,13.15,13.15,0,0,0,5-.92,10.44,10.44,0,0,0,3.81-2.64,12,12,0,0,0,2.42-4.22A17,17,0,0,0,1456.58,790.58Z" transform="translate(-1010.59 -581.2)"/><path class="cls-20" d="M1651.92,792.65V806h-4.8V770.33h10.52a19.87,19.87,0,0,1,5.89.78,11.46,11.46,0,0,1,4.14,2.23,9,9,0,0,1,2.45,3.48,12.26,12.26,0,0,1,.81,4.56,11.64,11.64,0,0,1-.87,4.55,9.8,9.8,0,0,1-2.55,3.56,11.83,11.83,0,0,1-4.17,2.32,17.8,17.8,0,0,1-5.7.84Zm0-3.84h5.72a11.26,11.26,0,0,0,3.65-.54,7.63,7.63,0,0,0,2.65-1.53,6.52,6.52,0,0,0,1.62-2.35,8.18,8.18,0,0,0,.54-3,6.85,6.85,0,0,0-2.1-5.33q-2.1-1.9-6.36-1.91h-5.72Z" transform="translate(-1010.59 -581.2)"/><path class="cls-20" d="M1682.32,791.1V806h-4.8V770.33h10.08a22.25,22.25,0,0,1,5.84.68,11.21,11.21,0,0,1,4.07,2,8,8,0,0,1,2.38,3.12,10.55,10.55,0,0,1,.77,4.1,10.22,10.22,0,0,1-.6,3.53,9.32,9.32,0,0,1-1.73,3,10.13,10.13,0,0,1-2.76,2.22,13.73,13.73,0,0,1-3.69,1.4,5.26,5.26,0,0,1,1.59,1.51l10.4,14.16h-4.28a2.1,2.1,0,0,1-1.94-1l-9.26-12.74a2.74,2.74,0,0,0-.92-.86,3.37,3.37,0,0,0-1.49-.26Zm0-3.5h5a12.3,12.3,0,0,0,3.72-.51,7.61,7.61,0,0,0,2.69-1.45,6,6,0,0,0,1.63-2.22,7.4,7.4,0,0,0,.55-2.86,5.67,5.67,0,0,0-2.11-4.81q-2.1-1.61-6.25-1.61h-5.28Z" transform="translate(-1010.59 -581.2)"/><path class="cls-20" d="M1741,788.17a20.7,20.7,0,0,1-1.27,7.35,16.82,16.82,0,0,1-3.59,5.76,15.81,15.81,0,0,1-5.56,3.74,20,20,0,0,1-14.34,0,16,16,0,0,1-5.55-3.74,17,17,0,0,1-3.58-5.76,21.9,21.9,0,0,1,0-14.7,17.14,17.14,0,0,1,3.58-5.78,16.24,16.24,0,0,1,5.55-3.76,19.72,19.72,0,0,1,14.34,0,16,16,0,0,1,5.56,3.76,17,17,0,0,1,3.59,5.78A20.7,20.7,0,0,1,1741,788.17Zm-5,0a18.06,18.06,0,0,0-.89-5.9,12.4,12.4,0,0,0-2.54-4.41,10.92,10.92,0,0,0-4-2.78,14.48,14.48,0,0,0-10.42,0,11.17,11.17,0,0,0-4,2.78,12.42,12.42,0,0,0-2.55,4.41,19.93,19.93,0,0,0,0,11.78,12.46,12.46,0,0,0,2.55,4.4,11,11,0,0,0,4,2.77,14.76,14.76,0,0,0,10.42,0,10.78,10.78,0,0,0,4-2.77,12.45,12.45,0,0,0,2.54-4.4A17.89,17.89,0,0,0,1736.08,788.17Z" transform="translate(-1010.59 -581.2)"/><path class="cls-20" d="M1772.75,798.62a1,1,0,0,1,.73.32l1.89,2.06a15.18,15.18,0,0,1-5.32,4,19.83,19.83,0,0,1-14.51.09,15.4,15.4,0,0,1-5.35-3.73,16.75,16.75,0,0,1-3.43-5.76,21.38,21.38,0,0,1-1.22-7.39,20.23,20.23,0,0,1,1.3-7.39,17,17,0,0,1,3.67-5.77,16.47,16.47,0,0,1,5.66-3.75,19.45,19.45,0,0,1,7.28-1.33,16.23,16.23,0,0,1,11.84,4.53l-1.57,2.21a1.4,1.4,0,0,1-.39.41,1.09,1.09,0,0,1-.65.17,1.22,1.22,0,0,1-.68-.24l-.86-.58c-.34-.24-.72-.49-1.17-.75a9.85,9.85,0,0,0-1.59-.75,14,14,0,0,0-2.14-.58,14.76,14.76,0,0,0-2.82-.24,13.65,13.65,0,0,0-5.23,1,11.7,11.7,0,0,0-4.09,2.8,12.7,12.7,0,0,0-2.68,4.43,16.85,16.85,0,0,0-1,5.85,17.13,17.13,0,0,0,1,5.94,13.21,13.21,0,0,0,2.61,4.42,11.11,11.11,0,0,0,3.92,2.75,12.55,12.55,0,0,0,4.88.94,20.56,20.56,0,0,0,2.86-.18,11.88,11.88,0,0,0,2.35-.59,9.46,9.46,0,0,0,2-1,14.84,14.84,0,0,0,1.88-1.45A1.26,1.26,0,0,1,1772.75,798.62Z" transform="translate(-1010.59 -581.2)"/><path class="cls-20" d="M1803.68,770.33v3.93h-17.12V786.1h13.86v3.78h-13.86v12.17h17.12V806h-22V770.33Z" transform="translate(-1010.59 -581.2)"/><path class="cls-20" d="M1828.88,775.9a2,2,0,0,1-.47.56,1,1,0,0,1-.65.19,1.72,1.72,0,0,1-1-.42,15.21,15.21,0,0,0-1.42-.94,11.2,11.2,0,0,0-2.07-.93,8.92,8.92,0,0,0-2.92-.42,8.64,8.64,0,0,0-2.86.43,6.25,6.25,0,0,0-2.08,1.18,5.09,5.09,0,0,0-1.26,1.76,5.61,5.61,0,0,0-.42,2.18,4,4,0,0,0,.74,2.47,6,6,0,0,0,1.94,1.68,15,15,0,0,0,2.73,1.21l3.14,1c1.07.37,2.11.78,3.13,1.24a11.14,11.14,0,0,1,2.74,1.72,8,8,0,0,1,1.94,2.57,8.49,8.49,0,0,1,.73,3.73,12,12,0,0,1-.79,4.39,10.09,10.09,0,0,1-2.33,3.57,10.87,10.87,0,0,1-3.76,2.39,13.8,13.8,0,0,1-5.06.87,15.38,15.38,0,0,1-6.3-1.26,15,15,0,0,1-4.87-3.39l1.39-2.29a2,2,0,0,1,.49-.46,1.09,1.09,0,0,1,.63-.19,2,2,0,0,1,1.2.56q.68.55,1.68,1.23a12.31,12.31,0,0,0,2.44,1.23,9.42,9.42,0,0,0,3.49.56,9,9,0,0,0,3.06-.47,6.41,6.41,0,0,0,2.28-1.33,5.79,5.79,0,0,0,1.43-2.05,6.94,6.94,0,0,0,.5-2.67,4.43,4.43,0,0,0-.74-2.64,6,6,0,0,0-1.93-1.73,13.35,13.35,0,0,0-2.72-1.19l-3.14-1a31,31,0,0,1-3.13-1.18,10.2,10.2,0,0,1-2.72-1.74,8.05,8.05,0,0,1-1.93-2.68,9.51,9.51,0,0,1-.74-4,9.56,9.56,0,0,1,2.87-6.79,10.26,10.26,0,0,1,3.44-2.19,12.79,12.79,0,0,1,4.72-.82,15,15,0,0,1,5.44,1,12.56,12.56,0,0,1,4.31,2.73Z" transform="translate(-1010.59 -581.2)"/><path class="cls-20" d="M1855.25,775.9a2,2,0,0,1-.47.56,1,1,0,0,1-.65.19,1.72,1.72,0,0,1-1-.42,15.21,15.21,0,0,0-1.42-.94,11.2,11.2,0,0,0-2.07-.93,8.92,8.92,0,0,0-2.92-.42,8.64,8.64,0,0,0-2.86.43,6.25,6.25,0,0,0-2.08,1.18,4.94,4.94,0,0,0-1.25,1.76,5.44,5.44,0,0,0-.43,2.18,4,4,0,0,0,.74,2.47,6.15,6.15,0,0,0,1.94,1.68,15,15,0,0,0,2.73,1.21l3.14,1c1.07.37,2.11.78,3.13,1.24a11.14,11.14,0,0,1,2.74,1.72,8,8,0,0,1,1.94,2.57,8.49,8.49,0,0,1,.73,3.73,12,12,0,0,1-.79,4.39,10.09,10.09,0,0,1-2.33,3.57,10.87,10.87,0,0,1-3.76,2.39,13.8,13.8,0,0,1-5.06.87,15.38,15.38,0,0,1-6.3-1.26,15,15,0,0,1-4.87-3.39l1.4-2.29a1.75,1.75,0,0,1,.48-.46,1.09,1.09,0,0,1,.63-.19,2,2,0,0,1,1.2.56q.68.55,1.68,1.23a12.31,12.31,0,0,0,2.44,1.23,9.42,9.42,0,0,0,3.49.56,9,9,0,0,0,3.06-.47,6.41,6.41,0,0,0,2.28-1.33,5.79,5.79,0,0,0,1.43-2.05,6.94,6.94,0,0,0,.5-2.67,4.43,4.43,0,0,0-.74-2.64,6,6,0,0,0-1.93-1.73,13.35,13.35,0,0,0-2.72-1.19l-3.13-1a31.13,31.13,0,0,1-3.14-1.18,10.2,10.2,0,0,1-2.72-1.74,8.05,8.05,0,0,1-1.93-2.68,9.51,9.51,0,0,1-.74-4,9.56,9.56,0,0,1,2.87-6.79,10.26,10.26,0,0,1,3.44-2.19,12.79,12.79,0,0,1,4.72-.82,15,15,0,0,1,5.44,1,12.56,12.56,0,0,1,4.31,2.73Z" transform="translate(-1010.59 -581.2)"/><path class="cls-20" d="M1869.08,806h-4.83V770.33h4.83Z" transform="translate(-1010.59 -581.2)"/><path class="cls-20" d="M1882.08,770.49a2.57,2.57,0,0,1,.71.66L1903.44,798c0-.43-.09-.85-.1-1.26s0-.8,0-1.18V770.33h4.23V806h-2.44a2.06,2.06,0,0,1-.95-.2,2.43,2.43,0,0,1-.76-.67l-20.63-26.84c0,.41.06.82.08,1.22s0,.76,0,1.09V806h-4.23V770.33h2.49A2.16,2.16,0,0,1,1882.08,770.49Z" transform="translate(-1010.59 -581.2)"/><path class="cls-20" d="M1932.15,802.47a23.79,23.79,0,0,0,2.64-.13,16.12,16.12,0,0,0,4.3-1.07c.63-.26,1.26-.56,1.89-.89v-7.86h-5.53a1.09,1.09,0,0,1-.76-.27.89.89,0,0,1-.28-.67v-2.74h10.95v13.68a19.65,19.65,0,0,1-2.8,1.69,18.09,18.09,0,0,1-3.11,1.21,23.46,23.46,0,0,1-3.55.72,32.68,32.68,0,0,1-4.1.24,18.69,18.69,0,0,1-7.12-1.33,16.48,16.48,0,0,1-5.57-3.73,17.07,17.07,0,0,1-3.65-5.76,20.27,20.27,0,0,1-1.3-7.39,20.82,20.82,0,0,1,1.28-7.44,16,16,0,0,1,9.4-9.48,20.59,20.59,0,0,1,7.55-1.32,24.09,24.09,0,0,1,3.93.31,18.76,18.76,0,0,1,3.38.9,15.65,15.65,0,0,1,2.87,1.42,16.67,16.67,0,0,1,2.46,1.88l-1.37,2.18a1.25,1.25,0,0,1-1.09.68,1.67,1.67,0,0,1-.87-.28c-.42-.23-.88-.51-1.39-.84a12.13,12.13,0,0,0-1.88-1,14.38,14.38,0,0,0-2.62-.78,16.82,16.82,0,0,0-3.57-.33,14.52,14.52,0,0,0-5.44,1,11.62,11.62,0,0,0-4.16,2.82,12.52,12.52,0,0,0-2.64,4.42,19.21,19.21,0,0,0,0,11.87,12.77,12.77,0,0,0,2.7,4.49,11.54,11.54,0,0,0,4.13,2.81A13.83,13.83,0,0,0,1932.15,802.47Z" transform="translate(-1010.59 -581.2)"/><path class="cls-20" d="M2159.66,789.49a19.23,19.23,0,0,1-1.22,7,15.45,15.45,0,0,1-3.43,5.38,15.25,15.25,0,0,1-5.31,3.47,18.61,18.61,0,0,1-6.86,1.22h-12.76V772.41h12.76a18.41,18.41,0,0,1,6.86,1.23,15.13,15.13,0,0,1,5.31,3.48,15.59,15.59,0,0,1,3.43,5.39A19.23,19.23,0,0,1,2159.66,789.49Zm-4.74,0a17.14,17.14,0,0,0-.86-5.62,11.77,11.77,0,0,0-2.43-4.19,10.39,10.39,0,0,0-3.81-2.62,13.22,13.22,0,0,0-5-.91h-8.12V802.8h8.12a13.22,13.22,0,0,0,5-.9,10.49,10.49,0,0,0,3.81-2.61,11.64,11.64,0,0,0,2.43-4.18A17.14,17.14,0,0,0,2154.92,789.49Z" transform="translate(-1010.59 -581.2)"/><path class="cls-20" d="M2197.64,789.49a19.71,19.71,0,0,1-1.21,7A16.26,16.26,0,0,1,2193,802a15.34,15.34,0,0,1-5.33,3.59,19.16,19.16,0,0,1-13.72,0,15.39,15.39,0,0,1-5.32-3.59,16.08,16.08,0,0,1-3.42-5.51,20.92,20.92,0,0,1,0-14.08,16.22,16.22,0,0,1,3.42-5.52,15.44,15.44,0,0,1,5.32-3.61,18.89,18.89,0,0,1,13.72,0,15.39,15.39,0,0,1,5.33,3.61,16.4,16.4,0,0,1,3.43,5.52A19.71,19.71,0,0,1,2197.64,789.49Zm-4.74,0a17,17,0,0,0-.86-5.64,12,12,0,0,0-2.42-4.23,10.61,10.61,0,0,0-3.81-2.66,13,13,0,0,0-5-.92,12.83,12.83,0,0,0-5,.92,10.69,10.69,0,0,0-3.83,2.66,11.88,11.88,0,0,0-2.44,4.23,19.1,19.1,0,0,0,0,11.27,11.92,11.92,0,0,0,2.44,4.22,10.52,10.52,0,0,0,3.83,2.64,13,13,0,0,0,5,.92,13.15,13.15,0,0,0,5-.92,10.44,10.44,0,0,0,3.81-2.64,12,12,0,0,0,2.42-4.22A17,17,0,0,0,2192.9,789.49Z" transform="translate(-1010.59 -581.2)"/><path class="cls-20" d="M2207.25,772.57a2.34,2.34,0,0,1,.68.63l19.77,25.72c0-.41-.08-.81-.1-1.2s0-.77,0-1.13V772.41h4v34.13h-2.33a2,2,0,0,1-.92-.19,2.44,2.44,0,0,1-.72-.64L2207.91,780c0,.4.05.79.07,1.17s0,.73,0,1.05v24.31H2204V772.41h2.38A2.11,2.11,0,0,1,2207.25,772.57Z" transform="translate(-1010.59 -581.2)"/><path class="cls-20" d="M2261,772.41v3.77H2244.6v11.33h13.27v3.62H2244.6v11.65H2261v3.76h-21V772.41Z" transform="translate(-1010.59 -581.2)"/><circle class="cls-12" cx="1416.26" cy="858.06" r="19.25" transform="translate(-1202.52 671.56) rotate(-45)"/><circle class="cls-21" cx="1785.25" cy="858.06" r="19.25" transform="translate(-1159.97 -148.08) rotate(-13.28)"/><circle class="cls-22" cx="2187.43" cy="858.06" r="19.25" transform="translate(-1149.21 -55.68) rotate(-13.28)"/><polygon class="cls-23" points="193.3 333.94 193.3 466.67 412.99 468 411.11 315.35 193.3 333.94"/><polygon class="cls-24" points="193.3 466.67 226.16 471.98 424.25 472.64 422.38 325.31 411.11 315.35 410.17 464.01 193.3 466.67"/><rect class="cls-25" x="229.14" y="403.85" width="144.68" height="7.98"/><rect class="cls-25" x="229.14" y="360.54" width="144.68" height="7.98"/><rect class="cls-25" x="229.14" y="382.19" width="144.68" height="7.98"/><rect class="cls-25" x="229.14" y="425.51" width="144.68" height="7.98"/><polygon class="cls-19" points="382.35 492.71 384.09 630.22 587.74 630.22 587.74 489.23 382.35 492.71"/><polygon class="cls-24" points="384.09 630.22 407.59 634.57 595.57 633.7 594.7 502.29 587.74 489.23 586.87 625 384.09 630.22"/><rect class="cls-7" x="416.29" y="565.78" width="144.68" height="7.98"/><rect class="cls-7" x="416.29" y="522.47" width="144.68" height="7.98"/><rect class="cls-7" x="416.29" y="544.13" width="144.68" height="7.98"/><rect class="cls-7" x="416.29" y="587.44" width="144.68" height="7.98"/><polygon class="cls-26" points="510.31 853.69 1039.91 128.97 1201.85 128.97 636.41 853.69 510.31 853.69"/><polygon class="cls-26" points="294.18 851.59 823.78 126.87 985.71 126.87 420.27 851.59 294.18 851.59"/><rect class="cls-27" x="2400.43" y="804.4" width="4.52" height="564.06" transform="translate(-1018.62 -563.26) rotate(-0.43)"/><polygon class="cls-24" points="626.67 675.72 643.92 681.03 834.39 681.03 811.17 597.41 802.54 587.45 826.43 675.72 626.67 675.72"/><polygon class="cls-28" points="624.68 567.54 626.39 675.72 826.43 675.72 802.22 587.17 624.68 567.54"/><polygon class="cls-29" points="779.98 463.31 781.28 540.33 933.94 540.33 933.94 461.36 779.98 463.31"/><polygon class="cls-12" points="781.3 540.33 811.83 544.98 939.92 544.32 941.24 472.64 933.94 461.36 933.28 535.02 781.3 540.33"/><rect class="cls-7" x="795.24" y="505.16" width="129.41" height="5.31"/><rect class="cls-7" x="795.9" y="491.22" width="129.41" height="5.31"/><rect class="cls-7" x="795.9" y="517.11" width="129.41" height="5.31"/><rect class="cls-7" x="795.9" y="478.61" width="129.41" height="5.31"/><polygon class="cls-24" points="623.35 325.97 624.98 430.83 815.81 430.83 815.81 323.32 623.35 325.97"/><polygon class="cls-19" points="625.01 430.5 642.93 435.81 820.79 436.47 820.13 337.58 815.48 322.99 815.48 430.5 625.01 430.5"/><rect class="cls-7" x="645.25" y="351.19" width="152.64" height="9.29"/><rect class="cls-7" x="645.25" y="373.09" width="152.64" height="9.29"/><rect class="cls-7" x="645.25" y="395.66" width="152.64" height="9.29"/><rect class="cls-7" x="641.93" y="646.52" width="155.3" height="5.97"/><rect class="cls-7" x="641.93" y="628.6" width="155.3" height="5.97"/><rect class="cls-7" x="641.93" y="610.68" width="155.3" height="5.97"/><polygon class="cls-19" points="1000.31 666.43 1007.8 801.95 1263.12 767.51 1263.12 686.64 1000.31 666.43"/><polygon class="cls-24" points="1006.28 801.82 1042.12 801.82 1269.09 771.95 1269.09 706.25 1263.12 688.33 1263.12 765.98 1006.28 801.82"/><rect class="cls-7" x="1024.2" y="700.28" width="221" height="5.97"/><rect class="cls-7" x="1024.2" y="718.19" width="221" height="5.97"/><rect class="cls-7" x="1024.2" y="736.11" width="221" height="5.97"/><rect class="cls-7" x="1024.2" y="754.03" width="221" height="5.97"/><polygon class="cls-29" points="1197.42 419.55 1197.42 503.17 1407.8 510.47 1419.74 391.01 1197.42 419.55"/><polygon class="cls-12" points="1197.42 503.17 1233.26 509.14 1412.44 515.11 1424.39 419.55 1419.74 391.01 1407.8 510.47 1197.42 503.17"/><rect class="cls-7" x="1221.31" y="431.49" width="179.19" height="5.38"/><rect class="cls-7" x="1221.31" y="447.62" width="179.19" height="5.38"/><rect class="cls-7" x="1221.31" y="463.75" width="179.19" height="5.38"/><rect class="cls-7" x="1221.31" y="479.87" width="179.19" height="5.38"/><rect class="cls-30" x="1012.26" y="318.01" width="161.27" height="119.46"/><polygon class="cls-12" points="1012.26 437.47 1048.09 443.44 1179.5 443.44 1179.5 347.87 1173.53 318.01 1173.53 437.47 1012.26 437.47"/><rect class="cls-7" x="1024.2" y="353.85" width="137.38" height="5.38"/><rect class="cls-7" x="1024.2" y="369.97" width="137.38" height="5.38"/><rect class="cls-7" x="1024.2" y="386.1" width="137.38" height="5.38"/><rect class="cls-7" x="1024.2" y="402.23" width="137.38" height="5.38"/><polygon class="cls-24" points="1173.53 556.92 1173.53 640.55 1352.71 670.41 1346.74 556.92 1173.53 556.92"/><polygon class="cls-31" points="1173.53 640.55 1215.34 652.49 1358.69 676.38 1352.71 580.82 1346.74 556.92 1352.71 670.41 1173.53 640.55"/><rect class="cls-19" x="1191.44" y="580.82" width="149.32" height="5.97"/><rect class="cls-19" x="1191.44" y="598.74" width="149.32" height="5.97"/><rect class="cls-19" x="1191.44" y="616.65" width="149.32" height="5.97"/><rect class="cls-32" x="1009.12" y="510.14" width="119.46" height="89.59"/><polygon class="cls-19" points="1009.12 599.74 1033.01 605.71 1134.55 605.71 1134.55 528.06 1128.58 510.14 1128.58 599.74 1009.12 599.74"/><rect class="cls-19" x="1021.07" y="534.03" width="95.57" height="5.97"/><rect class="cls-19" x="1021.07" y="551.95" width="95.57" height="5.97"/><rect class="cls-19" x="1021.07" y="569.87" width="95.57" height="5.97"/><rect class="cls-27" x="371.54" y="123.97" width="870.24" height="4.52"/><rect class="cls-27" x="289.57" y="849.17" width="536.02" height="4.52"/><rect class="cls-27" x="1231.86" y="827.72" width="346.84" height="4.52" transform="translate(-1012.22 -578.43) rotate(-0.11)"/><rect class="cls-27" x="593.33" y="246.17" width="372.06" height="4.52"/><rect class="cls-27" x="2208.09" y="684.58" width="4.52" height="287.99" transform="matrix(0.01, -1, 1, 0.01, 355.08, 2451.62)"/><rect class="cls-24" x="1975" y="799.38" width="52.7" height="70.27" transform="matrix(0.57, -0.82, 0.82, 0.57, -831.31, 1428.85)"/><polygon class="cls-31" points="946.88 255.1 956.47 265.97 1005.67 299.83 1031.56 262.2 1034.64 251.53 1004.77 294.94 946.88 255.1"/><rect class="cls-19" x="2005.57" y="797.73" width="3.51" height="56.21" transform="translate(-821.57 1430.01) rotate(-55.46)"/><rect class="cls-19" x="1999.59" y="806.41" width="3.51" height="56.21" transform="matrix(0.57, -0.82, 0.82, 0.57, -831.31, 1428.85)"/><rect class="cls-19" x="1993.62" y="815.09" width="3.51" height="56.21" transform="translate(-841.05 1427.68) rotate(-55.46)"/><path class="cls-33" d="M2005.46,819.29c-1.41.53-2.43.06-2.33-1.32s3.47-5.62,6.29-9c-2,.3-4.33.85-3.48-1.08,1-2.26,5-3.09,6.64-3.34,4.1-1.08,5.43-3.37,8.43-.21,3.51,3.7.35,6.92.35,6.92s-5.41,8-7.57,9.26a2.14,2.14,0,0,1-1.78.2,7.79,7.79,0,0,1-2.53,2.23c-.91.18-1.49-.47-1.85-1.21a3.92,3.92,0,0,1-1.22.82C2004.53,823,2005.09,820.5,2005.46,819.29Z" transform="translate(-1010.59 -581.2)"/><path class="cls-34" d="M2086.2,710.86c-10.57,25.49-63.87,99.35-63.87,99.35s-7.57-.29-7.57-6.36c0,0,43.84-70.72,47.72-94h-74.27s15.48-22.62,36.25-25.08a22,22,0,0,1,.36,4c0,8.85,20.35,3.82,23.38-2.23.91-1.82.4-4.43-.86-7.5,5.79-1,14.53-.18,34.06,5.59,5.64,1.66,8.16,5.48,8.4,10.73C2090,699.66,2088.63,705,2086.2,710.86Z" transform="translate(-1010.59 -581.2)"/><path class="cls-33" d="M2048.2,686.5c-3,6-23.41,11.08-23.38,2.23a22,22,0,0,0-.36-4,22.5,22.5,0,0,0-3.25-8.16,19.57,19.57,0,0,1-10.52,3.33c-10,.06-16.59-28.91-17.74-35.8,3.27,2.41,14.36-6.05,18.08-7.91,11.72-5.86,14.89,20.58,14.76,11.56s11.2,18,14.1,17.69l.1,0c2.78,4.82,5.71,9.59,7.35,13.59C2048.6,682.07,2049.11,684.68,2048.2,686.5Z" transform="translate(-1010.59 -581.2)"/><path class="cls-35" d="M2040,665.41l-.1,0c-2.9.26-14.23-26.7-14.1-17.69s-1.68,7.39-4.59,7.65-.71-20.55-12.43-14.69c-3.72,1.86-14.81,6.93-18.08,4.52-4.14-3.07-3.53-4.9-5.69-8.56a10,10,0,0,1,1.47-12.16c6.23-6.14,17.52-4.45,20-4.14,3.21.39,18.37-8.7,27.12,3.39S2042.74,664.35,2040,665.41Z" transform="translate(-1010.59 -581.2)"/><path class="cls-36" d="M2086.2,710.86c-10.57,25.49-41.26,61.43-52.14,73.75q-1.85,1.49-3.53,2.88C2046.26,768.89,2072.38,731.17,2086.2,710.86Z" transform="translate(-1010.59 -581.2)"/><ellipse class="cls-37" cx="1048.19" cy="1059.62" rx="381.52" ry="50.45"/><rect class="cls-38" x="1291.46" y="858.08" width="14.74" height="180.58"/><path class="cls-33" d="M1933.52,1414.46c-3.07-3.06-8.26-6.12-12.61-15.11-1.69-18.57-4.75-37.46-4.75-37.46,3.85,1.93,6.77,1.23,8.83-.17.73,7.34,3.37,22.39,12.93,35.13C1951.12,1414.46,1937.92,1418.86,1933.52,1414.46Z" transform="translate(-1010.59 -581.2)"/><path class="cls-39" d="M1867.25,1379a11.78,11.78,0,0,1-2.48,1.72c-2.72,1.5-7.86,3.51-16.28,3.86a73.44,73.44,0,0,1-11.38-.46c-1.61-.19-3.3-.42-5.07-.71,0,0-9.06-60.08,8.13-70.07.22-.13.44-.25.67-.36,18.1-8.8,25.92,12.72,26.41,17.61S1867.25,1379,1867.25,1379Z" transform="translate(-1010.59 -581.2)"/><path class="cls-40" d="M1928.87,1357a12,12,0,0,1-3.88,4.72c-2.06,1.4-5,2.1-8.83.17,0,0,3.06,18.89,4.75,37.46,1.24,13.76,1.73,27.34-.35,33l-66,4.4s-8.8-8.31-4.4-22c.94-2.91,1.08-7.36.72-12.56-.12-1.81-.31-3.71-.54-5.67-.45-3.83-1.09-7.87-1.81-11.9,13.75-.58,18.75-5.58,18.75-5.58s.49-43.52,0-48.41-8.31-26.41-26.41-17.61c-.23.12-.45.23-.67.36,4.91-5.38,14.67-13.9,27.08-13.56,18.09.49,21.52-.49,30.81,4.4S1928.38,1352.11,1928.87,1357Z" transform="translate(-1010.59 -581.2)"/><path class="cls-33" d="M1919.23,1423c-1.48,0-3.08.07-4.82.08h-3.15a66.45,66.45,0,0,1-6.93-.46c-22.5-2.68-42.62-16.46-54.95-26.86l-1-.81a137,137,0,0,1-11.32-10.78,72.41,72.41,0,0,0,11.39.47c8.41-.35,13.55-2.36,16.27-3.86,7.94,18.6,32.71,30.88,37.69,33.5,9.29,4.89,8.8.49,17.61,0C1928.21,1413.76,1948.08,1422.11,1919.23,1423Z" transform="translate(-1010.59 -581.2)"/><polygon class="cls-24" points="914.37 842.08 940.78 771.66 1015.61 771.66 984.8 842.08 914.37 842.08"/><polygon class="cls-41" points="984.8 841.08 984.55 847.33 878.92 847.33 878.92 840.9 890.91 840.96 914.37 841.08 984.8 841.08"/><path class="cls-33" d="M1896.66,1263.68c-1.94,11.64-7.38,30.75-12.87,36a5.86,5.86,0,0,1-1.23.93,5.12,5.12,0,0,1-.75.35c-.07.65-.15,1.31-.24,2-.51,3.48-1.44,6.88-3.12,8.4-4.12,3.7-18.53-7.41-18.53-7.41l2.54-11.3a6.46,6.46,0,0,0,.85-.76c7.41-7.83-2.41-15.84,1.71-19.55s3.29,3.3,7.41,3.71-.41-18.94,7.41-18.52C1885.21,1257.76,1891.76,1262.9,1896.66,1263.68Z" transform="translate(-1010.59 -581.2)"/><path class="cls-35" d="M1902.07,1261.18a4.71,4.71,0,0,1-5.41,2.5c-4.9-.78-11.44-5.92-16.82-6.21-7.82-.41-3.3,18.94-7.41,18.53s-3.3-7.41-7.41-3.7,5.7,11.71-1.71,19.54a6.46,6.46,0,0,1-.85.76c-5,3.65-9.67-6.12-11.23-12a58.76,58.76,0,0,0-2.45-7.32c-1.71-4.12-3.75-12.54,1.42-23.17,7.41-15.23,13.17-13.84,29.64-14.82C1906.05,1233.69,1906.19,1253.77,1902.07,1261.18Z" transform="translate(-1010.59 -581.2)"/><path class="cls-18" d="M1983.83,1387.92a7,7,0,1,0-7,7A7,7,0,0,0,1983.83,1387.92Z" transform="translate(-1010.59 -581.2)"/><path class="cls-42" d="M1901.5,1422.16l-12-.06v.71c-16.07-4.66-39-24.37-39.19-26.33C1862.17,1406.33,1880.7,1418.81,1901.5,1422.16Z" transform="translate(-1010.59 -581.2)"/><path class="cls-42" d="M1916.16,1361.92s-5.91-39-20-53.06C1896.16,1308.86,1904.86,1322.61,1916.16,1361.92Z" transform="translate(-1010.59 -581.2)"/><path class="cls-43" d="M1869,1299.24l.27.13C1867.61,1298.83,1867.4,1298.43,1869,1299.24Z" transform="translate(-1010.59 -581.2)"/><path class="cls-43" d="M1883.79,1299.67a5.86,5.86,0,0,1-1.23.93,5.12,5.12,0,0,1-.75.35c-.07.65-.15,1.31-.24,2a32.62,32.62,0,0,1-12.28-3.54A28.74,28.74,0,0,0,1883.79,1299.67Z" transform="translate(-1010.59 -581.2)"/><path class="cls-33" d="M2118.76,1655.55l-.84,4.22-.16,0a5.39,5.39,0,0,1-3.73.4c-.88-.39-1.28-1.08-2-1.58l1.84-5.5a1.3,1.3,0,0,0,.31.73C2116.18,1656.14,2117.7,1656.16,2118.76,1655.55Z" transform="translate(-1010.59 -581.2)"/><path class="cls-33" d="M2145.07,1681.74v6.14l0,0a6.57,6.57,0,0,1-4.23,1.66,10.31,10.31,0,0,1-2.61-1.14l-1.28-5.11a4.89,4.89,0,0,0,4.05,1.51h.11A5,5,0,0,0,2145.07,1681.74Z" transform="translate(-1010.59 -581.2)"/><path class="cls-35" d="M2148,1695.75a.61.61,0,0,1-.57.47c-7.9.24-16.27,1.08-24,1-5,0,.89-3.78,2.63-4.82,3-1.8,6.63-3.89,10.12-4.29a3.84,3.84,0,0,1,2,.28,10.31,10.31,0,0,0,2.61,1.14,6.57,6.57,0,0,0,4.23-1.66l0,0a.6.6,0,0,1,.94.25C2147,1690.56,2148.65,1693.07,2148,1695.75Z" transform="translate(-1010.59 -581.2)"/><path class="cls-35" d="M2118.41,1666.72a.52.52,0,0,1-.56.25c-6.35-1.53-13.2-2.69-19.35-4.4-4-1.11,1.53-2.82,3.14-3.27,2.81-.77,6.14-1.65,9-1.21a3,3,0,0,1,1.4.55c.71.5,1.11,1.19,2,1.58a5.39,5.39,0,0,0,3.73-.4l.16,0a.49.49,0,0,1,.56.44C2118.72,1662.36,2119.51,1664.72,2118.41,1666.72Z" transform="translate(-1010.59 -581.2)"/><path class="cls-33" d="M1963.14,1595.83c.24,2.39-5.3.79-7.14.19l.52-3.61a6.22,6.22,0,0,0,.51.64c1.22,1.37,4.32.17,5.73-1.17.35.48.78,1.08,1.27,1.73A2.11,2.11,0,0,0,1963.14,1595.83Z" transform="translate(-1010.59 -581.2)"/><path class="cls-44" d="M1952.39,1586.57c0-4.86-16.75-8.8-37.41-8.8s-37.41,3.94-37.41,8.8,16.75,8.8,37.41,8.8S1952.39,1591.43,1952.39,1586.57Z" transform="translate(-1010.59 -581.2)"/><path class="cls-44" d="M2309.23,1680.37c0-7.63-26.28-13.81-58.7-13.81s-58.7,6.18-58.7,13.81,26.28,13.81,58.7,13.81S2309.23,1688,2309.23,1680.37Z" transform="translate(-1010.59 -581.2)"/><path class="cls-35" d="M1976,1601a2.27,2.27,0,0,1-2.55,2.26l-18-2.26c-2.86-2.86,0-5.14,0-5.14l.58.19c1.84.6,7.38,2.2,7.14-.19a2.11,2.11,0,0,1,.89-2.22,3.09,3.09,0,0,1,1.68-.36c1.29,2.58,3.86,4.51,6.11,5.79A25.56,25.56,0,0,0,1976,1601Z" transform="translate(-1010.59 -581.2)"/><path class="cls-45" d="M2228.85,1508.23,2180,1541.68a1.27,1.27,0,0,0-.42.47l-59,111.19-.05.09a4.79,4.79,0,0,1-1.76,2.12c-1.06.61-2.58.59-4.57-1.68a1.3,1.3,0,0,1-.31-.73,1,1,0,0,1,0-.34c1.52-9.91,22-142.08,39.47-150.55,13.74-6.69,55-3.08,74-1A30.1,30.1,0,0,0,2228.85,1508.23Z" transform="translate(-1010.59 -581.2)"/><path class="cls-33" d="M1983.83,1578.13V1586h9.39s-4.7-6.26-4.7-11S1983.83,1578.13,1983.83,1578.13Z" transform="translate(-1010.59 -581.2)"/><path class="cls-46" d="M1990.59,1577.24a3.42,3.42,0,0,1-3.25,2.74c-2.26,0-5.11-.39-5.16-2.91-.4-19.29-1.56-65-.47-87.74,0-.24,0-.47,0-.69s0-.67,0-1v-.33c0-.16,0-.31,0-.47a.61.61,0,0,0,0-.14l0-.3c0-.2,0-.39,0-.58s0-.56,0-.83,0-.35,0-.51c0-.47,0-.91.07-1.31a3.41,3.41,0,0,0-2.74-3.52l-6.08-1.22-16.56-3.31-18.19-3.64a3.58,3.58,0,0,1-.56-.16l-56.3-21.65a3.47,3.47,0,0,1-1.15-.73l-6.22-6a3.41,3.41,0,0,1,2.6-5.86l56.7,3.78s70.66,8.07,75.07,17.36C2012.6,1466.71,1993.9,1560.77,1990.59,1577.24Z" transform="translate(-1010.59 -581.2)"/><path class="cls-47" d="M1982.18,1479.72l-.22,4a1.93,1.93,0,0,1,0,.24c0,.17,0,.34,0,.52s0,.54,0,.83,0,.38,0,.58l0,.3a.66.66,0,0,1,0,.14c0,.16,0,.31,0,.47v.33c0,.32,0,.65,0,1s0,.45,0,.69l-21.54,4.11h-88s-8-2.67-11.54-8.75c-2.86-5-2.74-12.18,7.14-22.06,0,0,79.23,17.12,88,17.61h.3l.57-5.12,16.56,3.31Z" transform="translate(-1010.59 -581.2)"/><path class="cls-44" d="M1982,1483.72a1.93,1.93,0,0,1,0,.24c0,.17,0,.34,0,.52s0,.54,0,.83,0,.38,0,.58l0,.3a.66.66,0,0,1,0,.14c0,.16,0,.31,0,.47v.33c0,.32,0,.65,0,1s0,.45,0,.69l-21.54,4.11h-88s-8-2.67-11.54-8.75l106.09,3.07Z" transform="translate(-1010.59 -581.2)"/><path class="cls-35" d="M1964.08,1462.63s-.6,117.95-.6,128a1.94,1.94,0,0,1-.72,1.23c-1.41,1.34-4.51,2.54-5.73,1.17a6.22,6.22,0,0,1-.51-.64,11.79,11.79,0,0,1-1.24-2.13l-21.52-109.55c-71.51,7.55-79.12-26.21-79.46-39.15a28.37,28.37,0,0,1,.23-4.87s-22-4.4,43.78,4.16S1964.08,1462.63,1964.08,1462.63Z" transform="translate(-1010.59 -581.2)"/><path class="cls-48" d="M1907.23,1493.69l.24,92.18s8.81,8.81,17.61,0l-.25-92.18Z" transform="translate(-1010.59 -581.2)"/><path class="cls-46" d="M1957,1592.53a11.32,11.32,0,0,1-1.75-2.78l-21.52-109.54c-71.51,7.54-79.12-26.21-79.46-39.15l1.16-.7s20.35,34.45,75.14,36H1940Z" transform="translate(-1010.59 -581.2)"/><path class="cls-35" d="M2299.4,1528.52c-4,8.53-13.5,13.5-30.84,21.89a3.53,3.53,0,0,1-1.58.25c-10.2,0-109,0-113.15.49-4.35.49,4.14,38.37-8.42,129.35a5.17,5.17,0,0,1-.34,1.24,5,5,0,0,1-4,3.08H2141l-.18,0h0a4.91,4.91,0,0,1-3.86-1.53,5.1,5.1,0,0,1-1.35-2.65c-3.29-18.83-25.68-148-21.6-156.17,4.4-8.8,88-22,105.63-26.41a37.88,37.88,0,0,1,7.6-.9c-.12,9.41,3,21.69,18.57,27.06,21.2,7.33,39.9,6.06,53.57-1.29,0,.16.06.31.08.47A10.79,10.79,0,0,1,2299.4,1528.52Z" transform="translate(-1010.59 -581.2)"/><path class="cls-33" d="M2259.55,1355.62l-1.62.58c1.59-7.15-.64-13.79-2.46-17.65-19.56-4.26-23.87-24.5-24.81-33.67a35.55,35.55,0,0,0,4.81.11,8,8,0,0,1,8.16,6.39c1.63,7.83,5.07,3.94,6.2,2.81s-.58-10.41,7.56-6.13C2262.33,1310.66,2259.7,1334.07,2259.55,1355.62Z" transform="translate(-1010.59 -581.2)"/><polygon class="cls-41" points="1151.56 837.91 1028.32 837.91 1010.72 754.28 1133.96 754.28 1151.56 837.91"/><rect class="cls-49" x="1028.32" y="837.91" width="145.25" height="8.8"/><polygon class="cls-18" points="1105.46 836.26 1037.43 837.25 1021.77 765.23 1093.11 765.23 1105.46 836.26"/><polygon class="cls-19" points="1145.44 835.68 1105.46 836.26 1093.11 765.23 1129.79 765.23 1145.44 835.68"/><path class="cls-50" d="M2209.93,1383.69c-8.26,8.75-15.56,17.35-17,21.72h0c-.1.31-.18.61-.26.91-19.55,5.41-49.75,8.28-57,7.9-9.29-.49,0-8.32,13.21-8.81C2161.26,1405,2204.19,1386.22,2209.93,1383.69Z" transform="translate(-1010.59 -581.2)"/><rect class="cls-51" x="799.44" y="846.71" width="554.59" height="13.2"/><rect class="cls-38" x="799.47" y="854.47" width="554.18" height="6.26"/><path class="cls-52" d="M2316.71,1398c-5.1,17.09-15.7,32.22-15.7,32.22s21.91,72.38,8.22,85.59a44.36,44.36,0,0,1-9.88,7.16c-12.23,6.57-28.49,8.29-47,3.32q-3.26-.87-6.59-2c-9.85-3.39-14.71-9.57-16.93-16a30.1,30.1,0,0,1-1.47-6.94,38.32,38.32,0,0,1-.17-4.1,43.65,43.65,0,0,1,1.91-12.2c6.16-24.65,3.45-13.06,7.85-26.76s.49-25.92,0-35.21a14.5,14.5,0,0,1,0-2c.55-7,5.54-15.23,7.74-18.54L2210.57,1423s-1-.17-2.44-.57a39.82,39.82,0,0,1-6.08-2.13c-5.41-2.46-11.11-6.81-9.35-14,.08-.3.16-.6.26-.91h0c1.41-4.37,8.71-13,17-21.72,12.43-13.17,27-26.69,27-26.69a85.46,85.46,0,0,1,13.82-6.69l1.84-.66c19.81-6.85,41.91-5.52,59.17,11.75C2321.29,1370.89,2320.59,1385,2316.71,1398Z" transform="translate(-1010.59 -581.2)"/><path class="cls-46" d="M2299.4,1528.52c-4,8.53-13.5,13.5-30.84,21.89a3.53,3.53,0,0,1-1.58.25c-10.2,0-109,0-113.15.49-4.35.49,4.14,38.37-8.42,129.35a5.17,5.17,0,0,1-.34,1.24,5,5,0,0,1-4,3.08H2141l-.18,0c0-.11,0-.48.07-1.09.73-11,6.46-100.61,3.3-141.74,0,0,121.49,3.38,145.11-13.5a35.92,35.92,0,0,1,10.15-5.09A10.79,10.79,0,0,1,2299.4,1528.52Z" transform="translate(-1010.59 -581.2)"/><path class="cls-53" d="M2301,1430.21s21.91,72.38,8.22,85.59a44.36,44.36,0,0,1-9.88,7.16c-12.23,6.57-28.49,8.29-47,3.32,4.06-5.66,14.47-7.93,23.41-14.63,12.36-9.26,19.06-89.22,20.1-102.69,6.51.71,12.87-.25,18.29-3.63A133.84,133.84,0,0,1,2301,1430.21Z" transform="translate(-1010.59 -581.2)"/><path class="cls-35" d="M2323,1392.91a23.24,23.24,0,0,1-25.51,14.67c-12.54-1.36-25.74-9.82-32.33-18.53-3.88-5.12-5.21-15-5.5-26-.62-23.24,3.29-52-2.22-54.94-8.14-4.28-3,9.52-8.69,10.65-2.22.44-3.44.5-5.07-7.33a8,8,0,0,0-8.16-6.39,35.55,35.55,0,0,1-4.81-.11c-9.19-.88-13.6-15.55-4.12-27.67,22.18-28.33,56.26-6.89,64,.82s12,15,15.82,49.72S2335,1365.91,2323,1392.91Z" transform="translate(-1010.59 -581.2)"/><path class="cls-47" d="M2319.9,1558.9c-2.52,3.57-8.1,5-8.1,5s-105.15.49-123.24,0c-7.43-.2-10.2-2.42-10.89-5-1-3.66,2.33-8,2.33-8l131.29-4.48a9.54,9.54,0,0,1,9.41,6.36A6.52,6.52,0,0,1,2319.9,1558.9Z" transform="translate(-1010.59 -581.2)"/><path class="cls-47" d="M2320.82,1489.38c-4.24,13.6-26.63,65.68-26.63,65.68s-8.8,8.81-13.2-4.4c0,0,20.48-41.89,21.93-60.29A139.48,139.48,0,0,0,2320.82,1489.38Z" transform="translate(-1010.59 -581.2)"/><path class="cls-48" d="M2241.62,1564.11l-.24,114.2s12.39,10,22,0l.25-114.2Z" transform="translate(-1010.59 -581.2)"/><path class="cls-47" d="M2340,1423.37V1485a90,90,0,0,1-19.22,4.39,139.48,139.48,0,0,1-17.9,1,168,168,0,0,1-26.09-2.13v-65Z" transform="translate(-1010.59 -581.2)"/><path class="cls-54" d="M2282.46,1479.65s32.14,5.27,56.31-2.62v-49.67l-56.31-.08Z" transform="translate(-1010.59 -581.2)"/><path class="cls-35" d="M1982.94,1584.74a2.84,2.84,0,0,0,.83,4.4l15.77-1a2,2,0,0,0,1.82-2.34h0s-7-1-10-4.95a1.94,1.94,0,0,0-1.79,2.61C1990.24,1585.9,1982.94,1584.74,1982.94,1584.74Z" transform="translate(-1010.59 -581.2)"/><path class="cls-46" d="M2319.9,1558.9c-2.52,3.57-8.1,5-8.1,5s-105.15.49-123.24,0c-7.43-.2-10.2-2.42-10.89-5Z" transform="translate(-1010.59 -581.2)"/><path class="cls-55" d="M2237,1421.05c.55-7,5.54-15.23,7.74-18.54L2210.57,1423a40.58,40.58,0,0,1-8.52-2.7c4.72-2,40.43-17.34,46.73-26.78C2254.31,1385.25,2241.75,1408.6,2237,1421.05Z" transform="translate(-1010.59 -581.2)"/><rect class="cls-24" x="1028.96" y="769.58" width="57.37" height="4.52"/><rect class="cls-24" x="1031.32" y="776.63" width="57.37" height="4.52"/><path class="cls-18" d="M2138.85,1352.93c0,1.87-6.8,3.38-15.19,3.38s-15.18-1.51-15.18-3.38,6.8-3.37,15.18-3.37S2138.85,1351.07,2138.85,1352.93Z" transform="translate(-1010.59 -581.2)"/><polygon class="cls-24" points="1033.49 786.22 1035.33 793.59 1090.61 793.59 1088.77 786.22 1033.49 786.22"/><polygon class="cls-19" points="1037.17 800.96 1039.02 810.17 1057.44 810.17 1055.6 800.96 1037.17 800.96"/><polygon class="cls-29" points="1059.28 800.96 1061.13 810.17 1079.55 810.17 1077.71 800.96 1059.28 800.96"/><polygon class="cls-26" points="1121.57 754.28 1061.36 837.91 1045.19 837.91 1103.22 754.28 1121.57 754.28"/><path class="cls-24" d="M2090.14,1340.7a2.77,2.77,0,1,0-2.76,2.77A2.76,2.76,0,0,0,2090.14,1340.7Z" transform="translate(-1010.59 -581.2)"/><rect class="cls-38" x="854.75" y="858.08" width="14.74" height="180.58"/><path class="cls-33" d="M2208.13,1422.45c-15.78,16.53-54.3,5-54.3,5s-57.22-22-74.82-13.2-31.3-22,35.21-8.81,78.74,0,78.74,0h0c-2.48,7.74,3.45,12.35,9.09,14.91A39.82,39.82,0,0,0,2208.13,1422.45Z" transform="translate(-1010.59 -581.2)"/><ellipse class="cls-37" cx="392.14" cy="1014.69" rx="117.76" ry="14.58"/><path class="cls-56" d="M1432.26,1285.57a110.48,110.48,0,0,1-1.79,11.44,160.26,160.26,0,0,0-3,34.13l-1.94.17-2.26.17h0a264.77,264.77,0,0,1-33.68-.3l4.8-11.66-7.56-5.88a95.72,95.72,0,0,0-1.42-19.57c-.36-2.09-.79-4.29-1.33-6.55-3.44-14.36-5.51-51.58-2.76-60.72,1.79-5.93-.19-23.94-1.8-35.87-.66-4.89-1.26-8.77-1.51-10.36l.22-.46h.11l16.05,11.43,1.55-1.59,6.71-6.89,7.45,6,1.49,1.2,1.72-13.53,3.79,1.14c.09.4,1.54,6.94,3.54,16.74C1425.73,1219.51,1434.22,1265.59,1432.26,1285.57Z" transform="translate(-1010.59 -581.2)"/><path class="cls-33" d="M1419.65,1579.87l-.2,3.79h0c-1.41,0-2.25,3.29-5.39,3a7.36,7.36,0,0,0-4.16.51l-.17-6.46Z" transform="translate(-1010.59 -581.2)"/><path class="cls-33" d="M1361.26,1582.58l-.87,3.77-8.65.64a1.72,1.72,0,0,1-.21-.12l.09-4.7Z" transform="translate(-1010.59 -581.2)"/><path class="cls-33" d="M1410.25,1170.64l-.93.15v.21c0,.73,0,1.47,0,2.18,0,.88,0,1.73.09,2.52a12.64,12.64,0,0,0,.52,3.1c1.38,3.92-22,2.61-26.14-3.92,0,0,0-.1.13-.3a89.87,89.87,0,0,0,4-12.2,30.6,30.6,0,0,1-2.25-3.61c.88,1,1.45,1.65,1.54,1.73-5.84-8.81-4.46-16.63-2.4-20.55s7.57,12.4,11.7,6.53-5.51-2.61-.69-12.41c4.74-9.63,14.13-3.47,20-4.51C1421.84,1145.16,1425.78,1167.69,1410.25,1170.64Z" transform="translate(-1010.59 -581.2)"/><path class="cls-57" d="M1413.34,1176.7v1.62l-1.72,11.91-1.49-1.2-7.45-6-6.71,6.89-1.55,1.59-16.05-11.43-.46-.32,5.51-5.22.47,0c-.08.2-.13.3-.13.3,1.27,2,4.38,3.54,8,4.55,8.17,2.29,19.06,2.08,18.11-.63,0-.08-.06-.18-.09-.27a14.5,14.5,0,0,1-.43-2.83h0Z" transform="translate(-1010.59 -581.2)"/><path class="cls-35" d="M1421,1579.76l-1.36.11-9.93.8-1.43.11-.3,0c-3.94-27.52,7.17-119.86,5.9-126.31-1-4.81-8-43.39-11.53-62.69l-.39,1.6c-6.69,27-13.74,57.36-13.74,57.36,2.07,15-24.76,131.91-24.76,131.91l-2.21-.1-9.64-.41-3.29-.14c-2.06-6.53,6.2-122.11,6.88-131.26s-2.06-26.77-4.12-50.28c-1.39-15.82,1.9-31.94,4.19-40.78,12.5,0,27.45-1,27.45-1l2-16.85c13.9,1.05,31.41,0,43.14-1.07.28,4.08.59,6.49.59,6.49l14.72-2.58c-.24,23.9-.9,102.17.28,108.73C1444.87,1461.17,1421,1579.76,1421,1579.76Z" transform="translate(-1010.59 -581.2)"/><path class="cls-58" d="M1388.71,1333.38l-.48,1.16-2.25-1.14Z" transform="translate(-1010.59 -581.2)"/><path class="cls-59" d="M1427.89,1340.78c-11.73,1-29.24,2.12-43.14,1.07l.44-3.75.57-4.7v-.11l.21.11,2.25,1.14.48-1.16.91-2.2a264.77,264.77,0,0,0,33.68.3h0l2.26-.17,1.94-.17c0,.47,0,.94,0,1.39,0,1,0,1.87.08,2.74,0,.26,0,.52,0,.77q0,.76.06,1.47C1427.76,1338.69,1427.82,1339.78,1427.89,1340.78Z" transform="translate(-1010.59 -581.2)"/><path class="cls-60" d="M1405.6,1344.27a5.36,5.36,0,0,1-3.68-1.45,5,5,0,0,1-1.56-3.54l-.07-4.16a5.17,5.17,0,0,1,5.06-5.15l8.09-.26h.18a5.19,5.19,0,0,1,5.24,4.84l.2,4.15a4.9,4.9,0,0,1-1.32,3.61,5.36,5.36,0,0,1-3.73,1.7l-8.23.27Zm8-10.88h0l-8.1.27a1.46,1.46,0,0,0-1.49,1.4l.06,4.16a1.36,1.36,0,0,0,.42.93,1.63,1.63,0,0,0,1.19.43l8.23-.27a1.58,1.58,0,0,0,1.15-.51,1.27,1.27,0,0,0,.35-.93l-.2-4.15A1.5,1.5,0,0,0,1413.62,1333.39Z" transform="translate(-1010.59 -581.2)"/><path class="cls-34" d="M1444.44,1218.68c-.47,6,.46,14.8,3.64,28.36,9.63,41.14-1,97-1,97l-3.85.68-14.72,2.58s-.31-2.41-.59-6.49c-.07-1-.13-2.09-.19-3.27-.09-1.9-.17-4-.2-6.37a161,161,0,0,1,3-34.13,107.85,107.85,0,0,0,1.79-11.44c2-20-6.53-66-11.59-91-2-9.8-7.24-17.49-7.33-17.88,0,0,3.78,1.12,3.78,1.12,31,7.18,117.63-57.46,117.63-57.46a15.37,15.37,0,0,1,3.11.78,14.58,14.58,0,0,1,6.62,4.93c.25.33.48.66.68,1a14.36,14.36,0,0,1,.9,1.58,9.22,9.22,0,0,1,.39.89s-79.21,62.18-89.17,70.33c-5.87,4.81-11.77,6.63-12.81,18.52C1444.46,1218.46,1444.46,1218.57,1444.44,1218.68Z" transform="translate(-1010.59 -581.2)"/><path class="cls-33" d="M1412.93,1332.91c1.78-.27,2.56-1.31,1.65-2.61s-6.92-3.62-11.88-5.42c2.22-.8,5-1.58,3-3-2.36-1.68-7.07-.24-8.88.42-3.14-.48-7.64-.3-8.9,4.51a5.46,5.46,0,0,0,3.7,7s10.37,4.92,13.34,4.92a2.62,2.62,0,0,0,2-.8c1.91.62,3.39,1,3.94.8a1.93,1.93,0,0,0,1.21-2.23,4.79,4.79,0,0,0,1.76.12C1416.11,1336.09,1414,1333.9,1412.93,1332.91Z" transform="translate(-1010.59 -581.2)"/><path class="cls-34" d="M1394.42,1319.52l-4.8,11.66-.91,2.2-.48,1.16-2.25-1.14-.21-.11v.11l-.57,4.7-.44,3.75-2,16.85s-15,1-27.45,1a109.06,109.06,0,0,1-11.48-.53,24.93,24.93,0,0,1-2.91-.51l-.24-.07c-1.6-.44-2.37-1-2-1.86,2.27-4.31,6-32.22,7.17-41.82.05-.39.1-.76.13-1.09a.43.43,0,0,0,0-.11c0-.25.07-.47.09-.68-11-5.66-20.13-10.42-21.16-11.15-2.76-2,13.75-88.81,20-97.3s33-24.81,33-24.81,0,.27.13.79c.25,1.59.85,5.47,1.51,10.36,1.61,11.93,3.59,29.94,1.8,35.87-2.75,9.14-.68,46.36,2.76,60.72.54,2.26,1,4.46,1.33,6.55a95.72,95.72,0,0,1,1.42,19.57Z" transform="translate(-1010.59 -581.2)"/><path class="cls-12" d="M1418,1276.76l-12.19,16-9.81-16.59c9.45-16.73,3.92-83.32,3.92-83.32l-4-2.9,6.71-6.89,7.45,6-4,3.81C1410.44,1209.29,1418,1276.76,1418,1276.76Z" transform="translate(-1010.59 -581.2)"/><path class="cls-61" d="M1441.89,1595.07a1.7,1.7,0,0,1-1.8,1.65l-30.17-.92a1.73,1.73,0,0,1-1.62-1.2c-.59-2-1.35-6,1.59-7.47a7.36,7.36,0,0,1,4.16-.51c3.14.33,4-2.95,5.39-3h0c.55,0,1.19.51,2.1,1.94,2.65,4.2,14.84,7,19,7.86A1.67,1.67,0,0,1,1441.89,1595.07Z" transform="translate(-1010.59 -581.2)"/><path class="cls-61" d="M1358.88,1600c-6,0-11.07-2.28-10.22-4.57s2.55-8.38,2.55-8.38l.53,0,8.65-.64,1-.08s-.85,3,1.7,7.62S1364.84,1600,1358.88,1600Z" transform="translate(-1010.59 -581.2)"/><path class="cls-62" d="M1409.32,1171c0,.73,0,1.47,0,2.18a46.53,46.53,0,0,1-13.15-5.48,95.39,95.39,0,0,0,13.07,3.26Z" transform="translate(-1010.59 -581.2)"/><path class="cls-35" d="M1416.09,1129.5l-.29.06c-5.87,1-15.26-5.12-20,4.51-4.82,9.8,4.82,6.53.69,12.41s-9.63-10.45-11.7-6.53-3.44,11.74,2.4,20.55c-.09-.08-.66-.69-1.54-1.73-5.38-6.3-22-28.17-5.67-40.37,19.26-14.37,37.83-19.59,44.71-13.06S1421.94,1128.19,1416.09,1129.5Z" transform="translate(-1010.59 -581.2)"/><path class="cls-63" d="M1408.53,1564.72c.4,9.69.09,14.09-.24,16.06l-.3,0c-3.94-27.52,7.17-119.86,5.9-126.31-1-4.81-8-43.39-11.53-62.69l-.39,1.6c1.84-18.4,3.79-34.87,5.18-38.3,0,0,7.57,83.58,11.69,94S1407.84,1548.4,1408.53,1564.72Z" transform="translate(-1010.59 -581.2)"/><polygon class="cls-64" points="375.24 751.71 335.34 732.12 335.34 733.42 375.24 752.85 375.24 751.71"/><path class="cls-64" d="M1351.09,1316.75l-.35,3.1c-.62,19.59-8.64,36-10.09,38.75-1.6-.44-2.37-1-2-1.86,2.27-4.31,6-32.22,7.17-41.82.05-.39.1-.76.13-1.09a.43.43,0,0,0,0-.11Z" transform="translate(-1010.59 -581.2)"/><path class="cls-64" d="M1367.94,1222.55l-17.2,62,5.51,5.22h0a21.45,21.45,0,0,1-1.12-13.39Z" transform="translate(-1010.59 -581.2)"/><path class="cls-64" d="M1372.07,1248c2.75-9.14,0-11.1-1.38-24.16-1.31-12.38,7.9-31,8.86-32.93,1.61,11.93,3.59,29.94,1.8,35.87-2.75,9.14-.68,46.36,2.76,60.72.54,2.26,1,4.46,1.33,6.55C1380.11,1281,1370,1254.8,1372.07,1248Z" transform="translate(-1010.59 -581.2)"/><path class="cls-64" d="M1432.26,1285.57c2-20-6.53-66.06-11.59-91,2.86,3.16,10.27,12.14,11.93,22.09,2.07,12.41-1.37,18.29,2.07,28.74,3.24,9.84,5.86,33.6-4.2,51.6A110.48,110.48,0,0,0,1432.26,1285.57Z" transform="translate(-1010.59 -581.2)"/><path class="cls-33" d="M1560.8,1116.8c-.85,4-5.91,7.21-9.29,8a39.19,39.19,0,0,0-6.35,2.22,14.83,14.83,0,0,0-7.3-5.89l4.78-3.13c.76-2,2.37-6.55,3.47-7.07,1.49-.7,3.19-1,3.94-.53,4.74-4.67,10.57-9.81,12-8.43,1.15,1.09-2.22,5-6.24,8.91,1.27,0,3.94.24,3.29,2.7C1558.27,1116.8,1561.65,1112.79,1560.8,1116.8Z" transform="translate(-1010.59 -581.2)"/><path class="cls-65" d="M1546.45,1129.5s-79.21,62.18-89.17,70.33c-5.87,4.81-11.77,6.63-12.81,18.52a25.38,25.38,0,0,1,7-21.45c10.22-10.62,84.41-61.34,94.61-68.29A9.22,9.22,0,0,1,1546.45,1129.5Z" transform="translate(-1010.59 -581.2)"/></svg>